{
  "version": "1.1.6",
  "modules": [
    {
      "id": 1,
      "plugin": "Core",
      "version": "1.1.6",
      "model": "AudioInterface",
      "params": [],
      "leftModuleId": 77,
      "rightModuleId": 166,
      "data": {
        "audio": {
          "driver": 5,
          "deviceName": "Apple Inc.: Built-in Output",
          "offset": 0,
          "maxChannels": 8,
          "sampleRate": 44100,
          "blockSize": 256
        }
      },
      "pos": [
        57,
        0
      ]
    },
    {
      "id": 41,
      "plugin": "squinkylabs-plug1",
      "version": "1.0.7",
      "model": "squinkylabs-mix8",
      "params": [
        {
          "id": 0,
          "value": 0.800000012
        },
        {
          "id": 1,
          "value": 0.0
        },
        {
          "id": 2,
          "value": 1.0
        },
        {
          "id": 3,
          "value": 0.800000012
        },
        {
          "id": 4,
          "value": 0.511999071
        },
        {
          "id": 5,
          "value": 0.184999421
        },
        {
          "id": 6,
          "value": 0.471499085
        },
        {
          "id": 7,
          "value": 0.800000012
        },
        {
          "id": 8,
          "value": 0.800000012
        },
        {
          "id": 9,
          "value": 0.800000012
        },
        {
          "id": 10,
          "value": 0.0
        },
        {
          "id": 11,
          "value": 0.0
        },
        {
          "id": 12,
          "value": 0.0
        },
        {
          "id": 13,
          "value": 0.0
        },
        {
          "id": 14,
          "value": 0.0
        },
        {
          "id": 15,
          "value": 0.0
        },
        {
          "id": 16,
          "value": 0.0
        },
        {
          "id": 17,
          "value": 0.0
        },
        {
          "id": 18,
          "value": 0.0
        },
        {
          "id": 19,
          "value": 0.0
        },
        {
          "id": 20,
          "value": 0.0
        },
        {
          "id": 21,
          "value": 0.0
        },
        {
          "id": 22,
          "value": 0.0
        },
        {
          "id": 23,
          "value": 0.0
        },
        {
          "id": 24,
          "value": 0.0
        },
        {
          "id": 25,
          "value": 0.0
        },
        {
          "id": 26,
          "value": 0.0
        },
        {
          "id": 27,
          "value": 0.0
        },
        {
          "id": 28,
          "value": 0.0
        },
        {
          "id": 29,
          "value": 0.0
        },
        {
          "id": 30,
          "value": 0.0
        },
        {
          "id": 31,
          "value": 0.0
        },
        {
          "id": 32,
          "value": 0.0
        },
        {
          "id": 33,
          "value": 0.0
        },
        {
          "id": 34,
          "value": 0.0
        },
        {
          "id": 35,
          "value": 0.0
        },
        {
          "id": 36,
          "value": 0.0
        },
        {
          "id": 37,
          "value": 0.0
        },
        {
          "id": 38,
          "value": 0.0
        },
        {
          "id": 39,
          "value": 0.0
        },
        {
          "id": 40,
          "value": 0.0
        },
        {
          "id": 41,
          "value": 0.0
        },
        {
          "id": 42,
          "value": 0.0
        }
      ],
      "leftModuleId": 42,
      "rightModuleId": 76,
      "pos": [
        21,
        0
      ]
    },
    {
      "id": 42,
      "plugin": "ImpromptuModular",
      "version": "1.1.4",
      "model": "Clocked",
      "params": [
        {
          "id": 0,
          "value": 60.0
        },
        {
          "id": 1,
          "value": -5.0
        },
        {
          "id": 2,
          "value": -2.0
        },
        {
          "id": 3,
          "value": 5.0
        },
        {
          "id": 4,
          "value": 0.0
        },
        {
          "id": 5,
          "value": 0.0
        },
        {
          "id": 6,
          "value": 0.0
        },
        {
          "id": 7,
          "value": 0.0
        },
        {
          "id": 8,
          "value": 0.5
        },
        {
          "id": 9,
          "value": 0.5
        },
        {
          "id": 10,
          "value": 0.5
        },
        {
          "id": 11,
          "value": 0.5
        },
        {
          "id": 12,
          "value": 0.0
        },
        {
          "id": 13,
          "value": 0.0
        },
        {
          "id": 14,
          "value": 0.0
        },
        {
          "id": 15,
          "value": 0.0
        },
        {
          "id": 16,
          "value": 0.0
        },
        {
          "id": 17,
          "value": 0.0
        },
        {
          "id": 18,
          "value": 0.0
        },
        {
          "id": 19,
          "value": 0.0
        }
      ],
      "rightModuleId": 41,
      "data": {
        "panelTheme": 0,
        "running": true,
        "displayDelayNoteMode": true,
        "bpmDetectionMode": false,
        "restartOnStopStartRun": 0,
        "sendResetOnRestart": false,
        "ppqn": 4,
        "resetClockOutputsHigh": true,
        "momentaryRunInput": true
      },
      "pos": [
        1,
        0
      ]
    },
    {
      "id": 43,
      "plugin": "AudibleInstruments",
      "version": "1.0.2",
      "model": "Braids",
      "params": [
        {
          "id": 0,
          "value": 0.0
        },
        {
          "id": 1,
          "value": 0.438000023
        },
        {
          "id": 2,
          "value": -0.19799982
        },
        {
          "id": 3,
          "value": 0.5
        },
        {
          "id": 4,
          "value": 0.0
        },
        {
          "id": 5,
          "value": 0.556500256
        },
        {
          "id": 6,
          "value": 0.608499527
        }
      ],
      "leftModuleId": 47,
      "rightModuleId": 51,
      "data": {
        "settings": [
          28,
          0,
          0,
          0,
          0,
          0,
          0,
          0,
          0,
          0,
          0,
          0,
          0,
          0,
          0,
          0,
          0,
          0,
          0,
          0
        ],
        "lowCpu": false
      },
      "pos": [
        23,
        1
      ]
    },
    {
      "id": 47,
      "plugin": "VultModulesFree",
      "version": "1.9.0",
      "model": "Caudal",
      "params": [
        {
          "id": 0,
          "value": 0.408000201
        },
        {
          "id": 1,
          "value": 0.263999999
        },
        {
          "id": 2,
          "value": -0.369000018
        },
        {
          "id": 3,
          "value": 0.0
        },
        {
          "id": 4,
          "value": 0.0
        },
        {
          "id": 5,
          "value": 0.0
        },
        {
          "id": 6,
          "value": 0.0
        },
        {
          "id": 7,
          "value": 0.0
        },
        {
          "id": 8,
          "value": 0.0
        }
      ],
      "leftModuleId": 50,
      "rightModuleId": 43,
      "data": {
        "phi1": -3.06797051,
        "phi2": 1.24361312,
        "phi3": -1.38622737,
        "phi4": -1.10346663,
        "w1": -1.53571618,
        "w2": 20.3393917,
        "w3": 14.9132462,
        "w4": -13.4303389,
        "dx1": 0.0,
        "dy1": 0.0,
        "dx2": 0.0,
        "dy2": 0.0,
        "dx3": 0.0,
        "dy3": 0.0,
        "dx4": 0.0,
        "dy4": 0.0,
        "store_phi1": -3.06797051,
        "store_phi2": 1.24361312,
        "store_phi3": -1.38622737,
        "store_phi4": -1.10346663,
        "store_w1": -1.53571618,
        "store_w2": 20.3393917,
        "store_w3": 14.9132462,
        "store_w4": -13.4303389,
        "store_dx1": 0.0,
        "store_dy1": 0.0,
        "store_dx2": 0.0,
        "store_dy2": 0.0,
        "store_dx3": 0.0,
        "store_dy3": 0.0,
        "store_dx4": 0.0,
        "store_dy4": 0.0,
        "model": 0
      },
      "pos": [
        13,
        1
      ]
    },
    {
      "id": 50,
      "plugin": "FrozenWasteland",
      "version": "1.12.0",
      "model": "SeriouslySlowLFO",
      "params": [
        {
          "id": 0,
          "value": 0.0
        },
        {
          "id": 1,
          "value": 1.0
        },
        {
          "id": 2,
          "value": 0.0
        },
        {
          "id": 3,
          "value": 0.0
        },
        {
          "id": 4,
          "value": 0.0
        },
        {
          "id": 5,
          "value": 0.0
        },
        {
          "id": 6,
          "value": 1.0
        },
        {
          "id": 7,
          "value": 0.0
        }
      ],
      "rightModuleId": 47,
      "data": {
        "timeBase": 0
      },
      "pos": [
        1,
        1
      ]
    },
    {
      "id": 51,
      "plugin": "VultModulesFree",
      "version": "1.9.0",
      "model": "Lateralus",
      "params": [
        {
          "id": 0,
          "value": 0.638500452
        },
        {
          "id": 1,
          "value": 0.0
        },
        {
          "id": 2,
          "value": -0.333999842
        },
        {
          "id": 3,
          "value": 0.0
        },
        {
          "id": 4,
          "value": 0.600000024
        },
        {
          "id": 5,
          "value": 0.0
        },
        {
          "id": 6,
          "value": 0.0
        }
      ],
      "leftModuleId": 43,
      "rightModuleId": 74,
      "pos": [
        39,
        1
      ]
    },
    {
      "id": 52,
      "plugin": "squinkylabs-plug1",
      "version": "1.0.7",
      "model": "squinkylabs-coloredNoise",
      "params": [
        {
          "id": 0,
          "value": 5.0
        },
        {
          "id": 1,
          "value": 1.0
        }
      ],
      "leftModuleId": 75,
      "rightModuleId": 64,
      "pos": [
        62,
        1
      ]
    },
    {
      "id": 53,
      "plugin": "StellareModular",
      "version": "1.0.0",
      "model": "TuringMachine",
      "params": [
        {
          "id": 0,
          "value": 0.5
        },
        {
          "id": 1,
          "value": 0.5
        },
        {
          "id": 2,
          "value": 0.5
        },
        {
          "id": 3,
          "value": 0.5
        },
        {
          "id": 4,
          "value": 0.5
        },
        {
          "id": 5,
          "value": -1.0
        },
        {
          "id": 6,
          "value": 6.0
        },
        {
          "id": 7,
          "value": 0.0825001448
        },
        {
          "id": 8,
          "value": 0.0
        },
        {
          "id": 9,
          "value": 0.0
        },
        {
          "id": 10,
          "value": 0.0
        },
        {
          "id": 11,
          "value": 0.0
        },
        {
          "id": 12,
          "value": 0.0
        }
      ],
      "rightModuleId": 56,
      "data": {
        "pulses_mode": 0
      },
      "pos": [
        1,
        2
      ]
    },
    {
      "id": 54,
      "plugin": "Befaco",
      "version": "1.0.1",
      "model": "EvenVCO",
      "params": [
        {
          "id": 0,
          "value": -2.0
        },
        {
          "id": 1,
          "value": 0.0
        },
        {
          "id": 2,
          "value": 0.0
        }
      ],
      "leftModuleId": 55,
      "rightModuleId": 57,
      "pos": [
        32,
        2
      ]
    },
    {
      "id": 55,
      "plugin": "BaconMusic",
      "version": "1.0.2",
      "model": "Glissinator",
      "params": [
        {
          "id": 0,
          "value": 0.501999855
        }
      ],
      "leftModuleId": 56,
      "rightModuleId": 54,
      "pos": [
        27,
        2
      ]
    },
    {
      "id": 56,
      "plugin": "ML_modules",
      "version": "1.0.5",
      "model": "Quantum",
      "params": [
        {
          "id": 0,
          "value": 0.0
        },
        {
          "id": 1,
          "value": 0.0
        },
        {
          "id": 2,
          "value": 0.0
        },
        {
          "id": 3,
          "value": 0.0
        },
        {
          "id": 4,
          "value": 0.0
        },
        {
          "id": 5,
          "value": 0.0
        },
        {
          "id": 6,
          "value": 0.0
        },
        {
          "id": 7,
          "value": 0.0
        },
        {
          "id": 8,
          "value": 0.0
        },
        {
          "id": 9,
          "value": 0.0
        },
        {
          "id": 10,
          "value": 0.0
        },
        {
          "id": 11,
          "value": 0.0
        }
      ],
      "leftModuleId": 53,
      "rightModuleId": 55,
      "data": {
        "scale": [
          0,
          1,
          0,
          0,
          1,
          0,
          0,
          0,
          1,
          0,
          0,
          1
        ],
        "mode": 1,
        "transpose_select": 1,
        "toggle_mode": 0
      },
      "pos": [
        19,
        2
      ]
    },
    {
      "id": 57,
      "plugin": "VultModulesFree",
      "version": "1.9.0",
      "model": "Lateralus",
      "params": [
        {
          "id": 0,
          "value": 0.0
        },
        {
          "id": 1,
          "value": 0.0
        },
        {
          "id": 2,
          "value": 1.0
        },
        {
          "id": 3,
          "value": 0.0
        },
        {
          "id": 4,
          "value": 0.600000024
        },
        {
          "id": 5,
          "value": 0.0
        },
        {
          "id": 6,
          "value": 0.0
        }
      ],
      "leftModuleId": 54,
      "rightModuleId": 58,
      "pos": [
        40,
        2
      ]
    },
    {
      "id": 58,
      "plugin": "Befaco",
      "version": "1.0.1",
      "model": "EvenVCO",
      "params": [
        {
          "id": 0,
          "value": -3.0
        },
        {
          "id": 1,
          "value": -0.209999979
        },
        {
          "id": 2,
          "value": 0.390000135
        }
      ],
      "leftModuleId": 57,
      "rightModuleId": 59,
      "pos": [
        50,
        2
      ]
    },
    {
      "id": 59,
      "plugin": "VultModulesFree",
      "version": "1.9.0",
      "model": "Lateralus",
      "params": [
        {
          "id": 0,
          "value": 0.0
        },
        {
          "id": 1,
          "value": 0.0
        },
        {
          "id": 2,
          "value": 1.0
        },
        {
          "id": 3,
          "value": 0.0
        },
        {
          "id": 4,
          "value": 0.600000024
        },
        {
          "id": 5,
          "value": 0.0
        },
        {
          "id": 6,
          "value": 0.0
        }
      ],
      "leftModuleId": 58,
      "rightModuleId": 61,
      "pos": [
        58,
        2
      ]
    },
    {
      "id": 60,
      "plugin": "NYSTHI",
      "version": "1.0.11",
      "model": "M2",
      "params": [
        {
          "id": 0,
          "value": 1.0
        },
        {
          "id": 1,
          "value": 1.0
        },
        {
          "id": 2,
          "value": 1.0
        },
        {
          "id": 3,
          "value": 1.0
        },
        {
          "id": 4,
          "value": 0.0
        },
        {
          "id": 5,
          "value": 0.0
        },
        {
          "id": 6,
          "value": 0.0
        },
        {
          "id": 7,
          "value": 0.0
        },
        {
          "id": 8,
          "value": 0.0
        },
        {
          "id": 9,
          "value": 0.0
        },
        {
          "id": 10,
          "value": 1.0
        }
      ],
      "leftModuleId": 61,
      "data": {
        "m_mute0": false,
        "m_mute1": false,
        "m_mute2": false,
        "m_mute3": false,
        "m_4_quadrants_VCA": true,
        "m_exponential_levels": false
      },
      "pos": [
        76,
        2
      ]
    },
    {
      "id": 61,
      "plugin": "VultModulesFree",
      "version": "1.9.0",
      "model": "UtilKnobs",
      "params": [
        {
          "id": 0,
          "value": 0.632502437
        },
        {
          "id": 1,
          "value": 0.0
        },
        {
          "id": 2,
          "value": 0.0
        },
        {
          "id": 3,
          "value": 0.0
        },
        {
          "id": 4,
          "value": 0.0
        },
        {
          "id": 5,
          "value": 0.0
        },
        {
          "id": 6,
          "value": 0.0
        },
        {
          "id": 7,
          "value": 0.0
        },
        {
          "id": 8,
          "value": 0.0
        },
        {
          "id": 9,
          "value": 0.0
        },
        {
          "id": 10,
          "value": 0.0
        },
        {
          "id": 11,
          "value": 0.0
        }
      ],
      "leftModuleId": 59,
      "rightModuleId": 60,
      "pos": [
        68,
        2
      ]
    },
    {
      "id": 62,
      "plugin": "FrozenWasteland",
      "version": "1.12.0",
      "model": "DrunkenRampage",
      "params": [
        {
          "id": 0,
          "value": 2.0
        },
        {
          "id": 1,
          "value": 0.0
        },
        {
          "id": 2,
          "value": 0.0
        },
        {
          "id": 3,
          "value": 0.0
        },
        {
          "id": 4,
          "value": 0.0
        },
        {
          "id": 5,
          "value": 0.0
        },
        {
          "id": 6,
          "value": 0.0
        },
        {
          "id": 7,
          "value": 0.0
        },
        {
          "id": 8,
          "value": 0.624000013
        },
        {
          "id": 9,
          "value": 0.0
        },
        {
          "id": 10,
          "value": 0.0
        },
        {
          "id": 11,
          "value": 0.0
        },
        {
          "id": 12,
          "value": 0.5
        },
        {
          "id": 13,
          "value": 0.0
        },
        {
          "id": 14,
          "value": 0.0
        },
        {
          "id": 15,
          "value": 0.0
        },
        {
          "id": 16,
          "value": 0.0
        }
      ],
      "leftModuleId": 64,
      "pos": [
        73,
        1
      ]
    },
    {
      "id": 64,
      "plugin": "Fundamental",
      "version": "1.4.0",
      "model": "VCA",
      "params": [
        {
          "id": 0,
          "value": 1.0
        },
        {
          "id": 1,
          "value": 1.0
        }
      ],
      "leftModuleId": 52,
      "rightModuleId": 62,
      "pos": [
        68,
        1
      ]
    },
    {
      "id": 65,
      "plugin": "StellareModular",
      "version": "1.0.0",
      "model": "TuringMachine",
      "params": [
        {
          "id": 0,
          "value": 0.5
        },
        {
          "id": 1,
          "value": 0.5
        },
        {
          "id": 2,
          "value": 0.5
        },
        {
          "id": 3,
          "value": 0.5
        },
        {
          "id": 4,
          "value": 0.5
        },
        {
          "id": 5,
          "value": -0.534999967
        },
        {
          "id": 6,
          "value": 7.0
        },
        {
          "id": 7,
          "value": 0.0825001448
        },
        {
          "id": 8,
          "value": 0.0
        },
        {
          "id": 9,
          "value": 0.0
        },
        {
          "id": 10,
          "value": 0.0
        },
        {
          "id": 11,
          "value": 0.0
        },
        {
          "id": 12,
          "value": 0.0
        }
      ],
      "rightModuleId": 73,
      "data": {
        "pulses_mode": 0
      },
      "pos": [
        0,
        3
      ]
    },
    {
      "id": 66,
      "plugin": "ML_modules",
      "version": "1.0.5",
      "model": "Quantum",
      "params": [
        {
          "id": 0,
          "value": 0.0
        },
        {
          "id": 1,
          "value": 0.0
        },
        {
          "id": 2,
          "value": 0.0
        },
        {
          "id": 3,
          "value": 0.0
        },
        {
          "id": 4,
          "value": 0.0
        },
        {
          "id": 5,
          "value": 0.0
        },
        {
          "id": 6,
          "value": 0.0
        },
        {
          "id": 7,
          "value": 0.0
        },
        {
          "id": 8,
          "value": 0.0
        },
        {
          "id": 9,
          "value": 0.0
        },
        {
          "id": 10,
          "value": 0.0
        },
        {
          "id": 11,
          "value": 0.0
        }
      ],
      "leftModuleId": 68,
      "rightModuleId": 67,
      "data": {
        "scale": [
          0,
          1,
          0,
          0,
          1,
          0,
          0,
          0,
          1,
          0,
          0,
          1
        ],
        "mode": 1,
        "transpose_select": 1,
        "toggle_mode": 0
      },
      "pos": [
        28,
        3
      ]
    },
    {
      "id": 67,
      "plugin": "Befaco",
      "version": "1.0.1",
      "model": "EvenVCO",
      "params": [
        {
          "id": 0,
          "value": -3.0
        },
        {
          "id": 1,
          "value": 0.0
        },
        {
          "id": 2,
          "value": 0.0
        }
      ],
      "leftModuleId": 66,
      "rightModuleId": 69,
      "pos": [
        36,
        3
      ]
    },
    {
      "id": 68,
      "plugin": "Befaco",
      "version": "1.0.1",
      "model": "DualAtenuverter",
      "params": [
        {
          "id": 0,
          "value": 1.0
        },
        {
          "id": 1,
          "value": 0.989985943
        },
        {
          "id": 2,
          "value": 0.426999927
        },
        {
          "id": 3,
          "value": 0.809999466
        }
      ],
      "leftModuleId": 73,
      "rightModuleId": 66,
      "pos": [
        23,
        3
      ]
    },
    {
      "id": 69,
      "plugin": "VultModulesFree",
      "version": "1.9.0",
      "model": "Lateralus",
      "params": [
        {
          "id": 0,
          "value": 0.85200268
        },
        {
          "id": 1,
          "value": 0.0
        },
        {
          "id": 2,
          "value": 0.645000458
        },
        {
          "id": 3,
          "value": 0.0
        },
        {
          "id": 4,
          "value": 0.600000024
        },
        {
          "id": 5,
          "value": 0.0
        },
        {
          "id": 6,
          "value": 0.0
        }
      ],
      "leftModuleId": 67,
      "rightModuleId": 70,
      "pos": [
        44,
        3
      ]
    },
    {
      "id": 70,
      "plugin": "Valley",
      "version": "1.0.1",
      "model": "Plateau",
      "params": [
        {
          "id": 0,
          "value": 0.960999966
        },
        {
          "id": 1,
          "value": 0.553500235
        },
        {
          "id": 2,
          "value": 0.0
        },
        {
          "id": 3,
          "value": 10.0
        },
        {
          "id": 4,
          "value": 10.0
        },
        {
          "id": 5,
          "value": 0.5
        },
        {
          "id": 6,
          "value": 10.0
        },
        {
          "id": 7,
          "value": 0.549950004
        },
        {
          "id": 8,
          "value": 10.0
        },
        {
          "id": 9,
          "value": 10.0
        },
        {
          "id": 10,
          "value": 0.0
        },
        {
          "id": 11,
          "value": 0.5
        },
        {
          "id": 12,
          "value": 0.5
        },
        {
          "id": 13,
          "value": 0.0
        },
        {
          "id": 14,
          "value": 0.0
        },
        {
          "id": 15,
          "value": 0.0
        },
        {
          "id": 16,
          "value": 0.0
        },
        {
          "id": 17,
          "value": 0.0
        },
        {
          "id": 18,
          "value": 0.0
        },
        {
          "id": 19,
          "value": 0.0
        },
        {
          "id": 20,
          "value": 0.0
        },
        {
          "id": 21,
          "value": 0.0
        },
        {
          "id": 22,
          "value": 0.0
        },
        {
          "id": 23,
          "value": 0.0
        },
        {
          "id": 24,
          "value": 0.0
        },
        {
          "id": 25,
          "value": 0.0
        },
        {
          "id": 26,
          "value": 0.0
        },
        {
          "id": 27,
          "value": 0.0
        },
        {
          "id": 28,
          "value": 0.0
        },
        {
          "id": 29,
          "value": 0.0
        },
        {
          "id": 30,
          "value": 0.0
        }
      ],
      "leftModuleId": 69,
      "rightModuleId": 71,
      "data": {
        "frozen": false,
        "freezeToggle": false,
        "panelStyle": 0,
        "tuned": 0,
        "diffuseInput": 0,
        "preDelayCVSens": 0,
        "inputSensitivity": 0,
        "outputSaturation": 0
      },
      "pos": [
        54,
        3
      ]
    },
    {
      "id": 71,
      "plugin": "NYSTHI",
      "version": "1.0.11",
      "model": "M2",
      "params": [
        {
          "id": 0,
          "value": 1.0
        },
        {
          "id": 1,
          "value": 1.0
        },
        {
          "id": 2,
          "value": 1.0
        },
        {
          "id": 3,
          "value": 1.0
        },
        {
          "id": 4,
          "value": 0.0
        },
        {
          "id": 5,
          "value": 0.0
        },
        {
          "id": 6,
          "value": 0.0
        },
        {
          "id": 7,
          "value": 0.0
        },
        {
          "id": 8,
          "value": 0.0
        },
        {
          "id": 9,
          "value": 0.0
        },
        {
          "id": 10,
          "value": 1.01500046
        }
      ],
      "leftModuleId": 70,
      "rightModuleId": 86,
      "data": {
        "m_mute0": false,
        "m_mute1": false,
        "m_mute2": false,
        "m_mute3": false,
        "m_4_quadrants_VCA": true,
        "m_exponential_levels": false
      },
      "pos": [
        66,
        3
      ]
    },
    {
      "id": 73,
      "plugin": "BaconMusic",
      "version": "1.0.2",
      "model": "Glissinator",
      "params": [
        {
          "id": 0,
          "value": 1.0
        }
      ],
      "leftModuleId": 65,
      "rightModuleId": 68,
      "pos": [
        18,
        3
      ]
    },
    {
      "id": 74,
      "plugin": "Valley",
      "version": "1.0.1",
      "model": "Plateau",
      "params": [
        {
          "id": 0,
          "value": 1.0
        },
        {
          "id": 1,
          "value": 0.0989999995
        },
        {
          "id": 2,
          "value": 0.0
        },
        {
          "id": 3,
          "value": 10.0
        },
        {
          "id": 4,
          "value": 10.0
        },
        {
          "id": 5,
          "value": 0.5
        },
        {
          "id": 6,
          "value": 10.0
        },
        {
          "id": 7,
          "value": 0.549950004
        },
        {
          "id": 8,
          "value": 10.0
        },
        {
          "id": 9,
          "value": 10.0
        },
        {
          "id": 10,
          "value": 0.157500014
        },
        {
          "id": 11,
          "value": 0.5
        },
        {
          "id": 12,
          "value": 5.39599943
        },
        {
          "id": 13,
          "value": 0.0
        },
        {
          "id": 14,
          "value": 0.0
        },
        {
          "id": 15,
          "value": 0.0
        },
        {
          "id": 16,
          "value": 0.0
        },
        {
          "id": 17,
          "value": 0.0
        },
        {
          "id": 18,
          "value": 0.0
        },
        {
          "id": 19,
          "value": 0.0
        },
        {
          "id": 20,
          "value": 0.0
        },
        {
          "id": 21,
          "value": 0.0
        },
        {
          "id": 22,
          "value": 0.0
        },
        {
          "id": 23,
          "value": 0.0
        },
        {
          "id": 24,
          "value": 0.0
        },
        {
          "id": 25,
          "value": 0.0
        },
        {
          "id": 26,
          "value": 0.0
        },
        {
          "id": 27,
          "value": 0.0
        },
        {
          "id": 28,
          "value": 0.0
        },
        {
          "id": 29,
          "value": 1.0
        },
        {
          "id": 30,
          "value": 0.0
        }
      ],
      "leftModuleId": 51,
      "rightModuleId": 75,
      "data": {
        "frozen": false,
        "freezeToggle": false,
        "panelStyle": 0,
        "tuned": 1,
        "diffuseInput": 0,
        "preDelayCVSens": 0,
        "inputSensitivity": 0,
        "outputSaturation": 0
      },
      "pos": [
        49,
        1
      ]
    },
    {
      "id": 75,
      "plugin": "NYSTHI",
      "version": "1.0.11",
      "model": "M2",
      "params": [
        {
          "id": 0,
          "value": 1.0
        },
        {
          "id": 1,
          "value": 1.0
        },
        {
          "id": 2,
          "value": 1.0
        },
        {
          "id": 3,
          "value": 1.0
        },
        {
          "id": 4,
          "value": 0.0
        },
        {
          "id": 5,
          "value": 0.0
        },
        {
          "id": 6,
          "value": 0.0
        },
        {
          "id": 7,
          "value": 0.0
        },
        {
          "id": 8,
          "value": 0.0
        },
        {
          "id": 9,
          "value": 0.0
        },
        {
          "id": 10,
          "value": 1.00899994
        }
      ],
      "leftModuleId": 74,
      "rightModuleId": 52,
      "data": {
        "m_mute0": false,
        "m_mute1": false,
        "m_mute2": false,
        "m_mute3": false,
        "m_4_quadrants_VCA": true,
        "m_exponential_levels": false
      },
      "pos": [
        61,
        1
      ]
    },
    {
      "id": 76,
      "plugin": "VultModulesFree",
      "version": "1.9.0",
      "model": "Decline",
      "params": [
        {
          "id": 0,
          "value": 4.38077831
        },
        {
          "id": 1,
          "value": -14.3999987
        },
        {
          "id": 2,
          "value": -1.50599003
        },
        {
          "id": 3,
          "value": 0.0
        },
        {
          "id": 4,
          "value": 4.38011599
        },
        {
          "id": 5,
          "value": -20.0
        },
        {
          "id": 6,
          "value": 0.300000012
        },
        {
          "id": 7,
          "value": 4.50635004
        },
        {
          "id": 8,
          "value": 0.0
        },
        {
          "id": 9,
          "value": 1.39999998
        },
        {
          "id": 10,
          "value": 0.0
        }
      ],
      "leftModuleId": 41,
      "rightModuleId": 77,
      "pos": [
        47,
        0
      ]
    },
    {
      "id": 77,
      "plugin": "VultModulesFree",
      "version": "1.9.0",
      "model": "Disjoint",
      "params": [
        {
          "id": 0,
          "value": 0.18899937
        },
        {
          "id": 1,
          "value": 0.0
        },
        {
          "id": 2,
          "value": 0.0
        },
        {
          "id": 3,
          "value": 0.0
        }
      ],
      "leftModuleId": 76,
      "rightModuleId": 1,
      "pos": [
        53,
        0
      ]
    },
    {
      "id": 78,
      "plugin": "StellareModular",
      "version": "1.0.0",
      "model": "TuringMachine",
      "params": [
        {
          "id": 0,
          "value": 0.5
        },
        {
          "id": 1,
          "value": 0.5
        },
        {
          "id": 2,
          "value": 0.5
        },
        {
          "id": 3,
          "value": 0.5
        },
        {
          "id": 4,
          "value": 0.5
        },
        {
          "id": 5,
          "value": -0.534999967
        },
        {
          "id": 6,
          "value": 7.0
        },
        {
          "id": 7,
          "value": 0.0825001448
        },
        {
          "id": 8,
          "value": 0.0
        },
        {
          "id": 9,
          "value": 0.0
        },
        {
          "id": 10,
          "value": 0.0
        },
        {
          "id": 11,
          "value": 0.0
        },
        {
          "id": 12,
          "value": 0.0
        }
      ],
      "rightModuleId": 79,
      "data": {
        "pulses_mode": 0
      },
      "pos": [
        0,
        4
      ]
    },
    {
      "id": 79,
      "plugin": "BaconMusic",
      "version": "1.0.2",
      "model": "Glissinator",
      "params": [
        {
          "id": 0,
          "value": 1.0
        }
      ],
      "leftModuleId": 78,
      "rightModuleId": 80,
      "pos": [
        18,
        4
      ]
    },
    {
      "id": 80,
      "plugin": "Befaco",
      "version": "1.0.1",
      "model": "DualAtenuverter",
      "params": [
        {
          "id": 0,
          "value": 1.0
        },
        {
          "id": 1,
          "value": 2.99998641
        },
        {
          "id": 2,
          "value": 0.426999927
        },
        {
          "id": 3,
          "value": 0.0
        }
      ],
      "leftModuleId": 79,
      "rightModuleId": 81,
      "pos": [
        23,
        4
      ]
    },
    {
      "id": 81,
      "plugin": "ML_modules",
      "version": "1.0.5",
      "model": "Quantum",
      "params": [
        {
          "id": 0,
          "value": 0.0
        },
        {
          "id": 1,
          "value": 0.0
        },
        {
          "id": 2,
          "value": 0.0
        },
        {
          "id": 3,
          "value": 0.0
        },
        {
          "id": 4,
          "value": 0.0
        },
        {
          "id": 5,
          "value": 0.0
        },
        {
          "id": 6,
          "value": 0.0
        },
        {
          "id": 7,
          "value": 0.0
        },
        {
          "id": 8,
          "value": 0.0
        },
        {
          "id": 9,
          "value": 0.0
        },
        {
          "id": 10,
          "value": 0.0
        },
        {
          "id": 11,
          "value": 0.0
        }
      ],
      "leftModuleId": 80,
      "rightModuleId": 82,
      "data": {
        "scale": [
          0,
          1,
          0,
          0,
          1,
          0,
          0,
          0,
          1,
          0,
          0,
          1
        ],
        "mode": 1,
        "transpose_select": 1,
        "toggle_mode": 0
      },
      "pos": [
        28,
        4
      ]
    },
    {
      "id": 82,
      "plugin": "Befaco",
      "version": "1.0.1",
      "model": "EvenVCO",
      "params": [
        {
          "id": 0,
          "value": -4.0
        },
        {
          "id": 1,
          "value": 0.0
        },
        {
          "id": 2,
          "value": 0.0
        }
      ],
      "leftModuleId": 81,
      "rightModuleId": 83,
      "pos": [
        36,
        4
      ]
    },
    {
      "id": 83,
      "plugin": "VultModulesFree",
      "version": "1.9.0",
      "model": "Lateralus",
      "params": [
        {
          "id": 0,
          "value": 0.508500874
        },
        {
          "id": 1,
          "value": 0.0
        },
        {
          "id": 2,
          "value": 0.645000458
        },
        {
          "id": 3,
          "value": 0.0
        },
        {
          "id": 4,
          "value": 0.600000024
        },
        {
          "id": 5,
          "value": 0.0
        },
        {
          "id": 6,
          "value": 0.0
        }
      ],
      "leftModuleId": 82,
      "rightModuleId": 84,
      "pos": [
        44,
        4
      ]
    },
    {
      "id": 84,
      "plugin": "Valley",
      "version": "1.0.1",
      "model": "Plateau",
      "params": [
        {
          "id": 0,
          "value": 0.960999966
        },
        {
          "id": 1,
          "value": 0.487500042
        },
        {
          "id": 2,
          "value": 0.0764999911
        },
        {
          "id": 3,
          "value": 10.0
        },
        {
          "id": 4,
          "value": 10.0
        },
        {
          "id": 5,
          "value": 0.5
        },
        {
          "id": 6,
          "value": 10.0
        },
        {
          "id": 7,
          "value": 0.549950004
        },
        {
          "id": 8,
          "value": 10.0
        },
        {
          "id": 9,
          "value": 10.0
        },
        {
          "id": 10,
          "value": 0.0
        },
        {
          "id": 11,
          "value": 0.5
        },
        {
          "id": 12,
          "value": 0.5
        },
        {
          "id": 13,
          "value": 0.0
        },
        {
          "id": 14,
          "value": 0.0
        },
        {
          "id": 15,
          "value": 0.0
        },
        {
          "id": 16,
          "value": 0.0
        },
        {
          "id": 17,
          "value": 0.0
        },
        {
          "id": 18,
          "value": 0.0
        },
        {
          "id": 19,
          "value": 0.0
        },
        {
          "id": 20,
          "value": 0.0
        },
        {
          "id": 21,
          "value": 0.0
        },
        {
          "id": 22,
          "value": 0.0
        },
        {
          "id": 23,
          "value": 0.0
        },
        {
          "id": 24,
          "value": 0.0
        },
        {
          "id": 25,
          "value": 0.0
        },
        {
          "id": 26,
          "value": 0.0
        },
        {
          "id": 27,
          "value": 0.0
        },
        {
          "id": 28,
          "value": 0.0
        },
        {
          "id": 29,
          "value": 0.0
        },
        {
          "id": 30,
          "value": 0.0
        }
      ],
      "leftModuleId": 83,
      "rightModuleId": 85,
      "data": {
        "frozen": false,
        "freezeToggle": false,
        "panelStyle": 0,
        "tuned": 0,
        "diffuseInput": 0,
        "preDelayCVSens": 0,
        "inputSensitivity": 0,
        "outputSaturation": 0
      },
      "pos": [
        54,
        4
      ]
    },
    {
      "id": 85,
      "plugin": "NYSTHI",
      "version": "1.0.11",
      "model": "M2",
      "params": [
        {
          "id": 0,
          "value": 1.0
        },
        {
          "id": 1,
          "value": 1.0
        },
        {
          "id": 2,
          "value": 1.0
        },
        {
          "id": 3,
          "value": 1.0
        },
        {
          "id": 4,
          "value": 0.0
        },
        {
          "id": 5,
          "value": 0.0
        },
        {
          "id": 6,
          "value": 0.0
        },
        {
          "id": 7,
          "value": 0.0
        },
        {
          "id": 8,
          "value": 0.0
        },
        {
          "id": 9,
          "value": 0.0
        },
        {
          "id": 10,
          "value": 0.802000463
        }
      ],
      "leftModuleId": 84,
      "data": {
        "m_mute0": false,
        "m_mute1": false,
        "m_mute2": false,
        "m_mute3": false,
        "m_4_quadrants_VCA": true,
        "m_exponential_levels": false
      },
      "pos": [
        66,
        4
      ]
    },
    {
      "id": 86,
      "plugin": "Valley",
      "version": "1.0.1",
      "model": "uGraph",
      "params": [
        {
          "id": 0,
          "value": 0.0
        },
        {
          "id": 1,
          "value": 0.0
        },
        {
          "id": 2,
          "value": 0.0
        },
        {
          "id": 3,
          "value": 0.368999988
        },
        {
          "id": 4,
          "value": 0.421499848
        },
        {
          "id": 5,
          "value": 0.40200001
        },
        {
          "id": 6,
          "value": 0.463999927
        },
        {
          "id": 7,
          "value": 0.575499773
        },
        {
          "id": 8,
          "value": 1.0
        },
        {
          "id": 9,
          "value": 0.0
        }
      ],
      "leftModuleId": 71,
      "rightModuleId": 87,
      "data": {
        "sequencerMode": 2,
        "triggerOutputMode": 0,
        "accOutputMode": 0,
        "extClockResolution": 0,
        "chaosKnobMode": 0,
        "runMode": 0,
        "panelStyle": 0,
        "running": 1
      },
      "pos": [
        67,
        3
      ]
    },
    {
      "id": 87,
      "plugin": "DrumKit",
      "version": "1.1.4",
      "model": "BassDrum9",
      "params": [
        {
          "id": 0,
          "value": 10.0
        },
        {
          "id": 1,
          "value": 10.0
        },
        {
          "id": 2,
          "value": 0.0
        },
        {
          "id": 3,
          "value": 0.0
        },
        {
          "id": 4,
          "value": 0.0
        },
        {
          "id": 5,
          "value": 0.0
        },
        {
          "id": 6,
          "value": 0.0
        },
        {
          "id": 7,
          "value": 0.0
        },
        {
          "id": 8,
          "value": 0.0
        },
        {
          "id": 9,
          "value": 0.0
        },
        {
          "id": 10,
          "value": 0.0
        },
        {
          "id": 11,
          "value": 0.0
        },
        {
          "id": 12,
          "value": 0.0
        },
        {
          "id": 13,
          "value": 0.0
        },
        {
          "id": 14,
          "value": 0.0
        },
        {
          "id": 15,
          "value": 0.0
        },
        {
          "id": 16,
          "value": 1.0
        },
        {
          "id": 17,
          "value": 1.0
        },
        {
          "id": 18,
          "value": 0.0
        },
        {
          "id": 19,
          "value": 0.0
        },
        {
          "id": 20,
          "value": 0.0
        },
        {
          "id": 21,
          "value": 0.0
        },
        {
          "id": 22,
          "value": 0.0
        },
        {
          "id": 23,
          "value": 0.0
        },
        {
          "id": 24,
          "value": 0.0
        },
        {
          "id": 25,
          "value": 0.0
        },
        {
          "id": 26,
          "value": 0.0
        },
        {
          "id": 27,
          "value": 0.0
        },
        {
          "id": 28,
          "value": 0.0
        },
        {
          "id": 29,
          "value": 0.0
        },
        {
          "id": 30,
          "value": 0.0
        },
        {
          "id": 31,
          "value": 0.0
        }
      ],
      "leftModuleId": 86,
      "rightModuleId": 88,
      "pos": [
        77,
        3
      ]
    },
    {
      "id": 88,
      "plugin": "NYSTHI",
      "version": "1.0.11",
      "model": "M2",
      "params": [
        {
          "id": 0,
          "value": 0.783999979
        },
        {
          "id": 1,
          "value": 2.0
        },
        {
          "id": 2,
          "value": 1.0
        },
        {
          "id": 3,
          "value": 1.0
        },
        {
          "id": 4,
          "value": 0.0
        },
        {
          "id": 5,
          "value": 0.0
        },
        {
          "id": 6,
          "value": 0.0
        },
        {
          "id": 7,
          "value": 0.0
        },
        {
          "id": 8,
          "value": 0.0
        },
        {
          "id": 9,
          "value": 0.0
        },
        {
          "id": 10,
          "value": 2.0
        }
      ],
      "leftModuleId": 87,
      "rightModuleId": 89,
      "data": {
        "m_mute0": false,
        "m_mute1": false,
        "m_mute2": false,
        "m_mute3": false,
        "m_4_quadrants_VCA": true,
        "m_exponential_levels": false
      },
      "pos": [
        83,
        3
      ]
    },
    {
      "id": 89,
      "plugin": "Fundamental",
      "version": "1.4.0",
      "model": "LFO2",
      "params": [
        {
          "id": 0,
          "value": 1.0
        },
        {
          "id": 1,
          "value": 0.0
        },
        {
          "id": 2,
          "value": -4.56200218
        },
        {
          "id": 3,
          "value": 1.5
        },
        {
          "id": 4,
          "value": 0.5
        }
      ],
      "leftModuleId": 88,
      "rightModuleId": 91,
      "pos": [
        84,
        3
      ]
    },
    {
      "id": 90,
      "plugin": "DrumKit",
      "version": "1.1.4",
      "model": "OpenHiHat",
      "params": [
        {
          "id": 0,
          "value": 7.0
        },
        {
          "id": 1,
          "value": 7.0
        },
        {
          "id": 2,
          "value": 0.0
        },
        {
          "id": 3,
          "value": 0.0
        },
        {
          "id": 4,
          "value": 0.0
        },
        {
          "id": 5,
          "value": 0.0
        },
        {
          "id": 6,
          "value": 0.0
        },
        {
          "id": 7,
          "value": 0.0
        },
        {
          "id": 8,
          "value": 0.0
        },
        {
          "id": 9,
          "value": 0.0
        },
        {
          "id": 10,
          "value": 0.0
        },
        {
          "id": 11,
          "value": 0.0
        },
        {
          "id": 12,
          "value": 0.0
        },
        {
          "id": 13,
          "value": 0.0
        },
        {
          "id": 14,
          "value": 0.0
        },
        {
          "id": 15,
          "value": 0.0
        },
        {
          "id": 16,
          "value": 1.0
        },
        {
          "id": 17,
          "value": 1.0
        },
        {
          "id": 18,
          "value": 0.0
        },
        {
          "id": 19,
          "value": 0.0
        },
        {
          "id": 20,
          "value": 0.0
        },
        {
          "id": 21,
          "value": 0.0
        },
        {
          "id": 22,
          "value": 0.0
        },
        {
          "id": 23,
          "value": 0.0
        },
        {
          "id": 24,
          "value": 0.0
        },
        {
          "id": 25,
          "value": 0.0
        },
        {
          "id": 26,
          "value": 0.0
        },
        {
          "id": 27,
          "value": 0.0
        },
        {
          "id": 28,
          "value": 0.0
        },
        {
          "id": 29,
          "value": 0.0
        },
        {
          "id": 30,
          "value": 0.0
        },
        {
          "id": 31,
          "value": 0.0
        },
        {
          "id": 32,
          "value": 0.254999995
        },
        {
          "id": 33,
          "value": 0.254999995
        },
        {
          "id": 34,
          "value": 0.0
        },
        {
          "id": 35,
          "value": 0.0
        },
        {
          "id": 36,
          "value": 0.0
        },
        {
          "id": 37,
          "value": 0.0
        },
        {
          "id": 38,
          "value": 0.0
        },
        {
          "id": 39,
          "value": 0.0
        },
        {
          "id": 40,
          "value": 0.0
        },
        {
          "id": 41,
          "value": 0.0
        },
        {
          "id": 42,
          "value": 0.0
        },
        {
          "id": 43,
          "value": 0.0
        },
        {
          "id": 44,
          "value": 0.0
        },
        {
          "id": 45,
          "value": 0.0
        },
        {
          "id": 46,
          "value": 0.0
        },
        {
          "id": 47,
          "value": 0.0
        },
        {
          "id": 48,
          "value": 0.0
        },
        {
          "id": 49,
          "value": 0.0
        }
      ],
      "pos": [
        106,
        3
      ]
    },
    {
      "id": 91,
      "plugin": "DrumKit",
      "version": "1.1.4",
      "model": "Tomi",
      "params": [
        {
          "id": 0,
          "value": 7.0
        },
        {
          "id": 1,
          "value": 13.0
        },
        {
          "id": 2,
          "value": 0.0
        },
        {
          "id": 3,
          "value": 0.0
        },
        {
          "id": 4,
          "value": 0.0
        },
        {
          "id": 5,
          "value": 0.0
        },
        {
          "id": 6,
          "value": 0.0
        },
        {
          "id": 7,
          "value": 0.0
        },
        {
          "id": 8,
          "value": 0.0
        },
        {
          "id": 9,
          "value": 0.0
        },
        {
          "id": 10,
          "value": 0.0
        },
        {
          "id": 11,
          "value": 0.0
        },
        {
          "id": 12,
          "value": 0.0
        },
        {
          "id": 13,
          "value": 0.0
        },
        {
          "id": 14,
          "value": 0.0
        },
        {
          "id": 15,
          "value": 0.0
        },
        {
          "id": 16,
          "value": 1.0
        },
        {
          "id": 17,
          "value": 0.814399958
        },
        {
          "id": 18,
          "value": 0.0
        },
        {
          "id": 19,
          "value": 0.0
        },
        {
          "id": 20,
          "value": 0.0
        },
        {
          "id": 21,
          "value": 0.0
        },
        {
          "id": 22,
          "value": 0.0
        },
        {
          "id": 23,
          "value": 0.0
        },
        {
          "id": 24,
          "value": 0.0
        },
        {
          "id": 25,
          "value": 0.0
        },
        {
          "id": 26,
          "value": 0.0
        },
        {
          "id": 27,
          "value": 0.0
        },
        {
          "id": 28,
          "value": 0.0
        },
        {
          "id": 29,
          "value": 0.0
        },
        {
          "id": 30,
          "value": 0.0
        },
        {
          "id": 31,
          "value": 0.0
        }
      ],
      "leftModuleId": 89,
      "rightModuleId": 92,
      "pos": [
        90,
        3
      ]
    },
    {
      "id": 92,
      "plugin": "DrumKit",
      "version": "1.1.4",
      "model": "CR78",
      "params": [
        {
          "id": 0,
          "value": 3.0
        },
        {
          "id": 1,
          "value": 3.0
        },
        {
          "id": 2,
          "value": 0.0
        },
        {
          "id": 3,
          "value": 0.0
        },
        {
          "id": 4,
          "value": 0.0
        },
        {
          "id": 5,
          "value": 0.0
        },
        {
          "id": 6,
          "value": 0.0
        },
        {
          "id": 7,
          "value": 0.0
        },
        {
          "id": 8,
          "value": 0.0
        },
        {
          "id": 9,
          "value": 0.0
        },
        {
          "id": 10,
          "value": 0.0
        },
        {
          "id": 11,
          "value": 0.0
        },
        {
          "id": 12,
          "value": 0.0
        },
        {
          "id": 13,
          "value": 0.0
        },
        {
          "id": 14,
          "value": 0.0
        },
        {
          "id": 15,
          "value": 0.0
        },
        {
          "id": 16,
          "value": 1.0
        },
        {
          "id": 17,
          "value": 1.0
        },
        {
          "id": 18,
          "value": 0.0
        },
        {
          "id": 19,
          "value": 0.0
        },
        {
          "id": 20,
          "value": 0.0
        },
        {
          "id": 21,
          "value": 0.0
        },
        {
          "id": 22,
          "value": 0.0
        },
        {
          "id": 23,
          "value": 0.0
        },
        {
          "id": 24,
          "value": 0.0
        },
        {
          "id": 25,
          "value": 0.0
        },
        {
          "id": 26,
          "value": 0.0
        },
        {
          "id": 27,
          "value": 0.0
        },
        {
          "id": 28,
          "value": 0.0
        },
        {
          "id": 29,
          "value": 0.0
        },
        {
          "id": 30,
          "value": 0.0
        },
        {
          "id": 31,
          "value": 0.0
        }
      ],
      "leftModuleId": 91,
      "pos": [
        96,
        3
      ]
    },
    {
      "id": 166,
      "plugin": "NYSTHI",
      "version": "1.0.11",
      "model": "MonoRecorder",
      "params": [
        {
          "id": 0,
          "value": 0.0
        },
        {
          "id": 1,
          "value": 0.0
        },
        {
          "id": 2,
          "value": 0.0
        },
        {
          "id": 3,
          "value": 1.0
        },
        {
          "id": 4,
          "value": 0.0
        }
      ],
      "leftModuleId": 1,
      "rightModuleId": 168,
      "data": {
        "nysthi_id": "monorecorder_L3HRK07c",
        "wavebits": 9,
        "rms_time": 0.00100000005,
        "peak_time": 0.5,
        "m_invertphase": false,
        "m_autosave": true,
        "m_attenuation": 1.0
      },
      "pos": [
        67,
        0
      ]
    },
    {
      "id": 168,
      "plugin": "NYSTHI",
      "version": "1.0.11",
      "model": "MonoRecorder",
      "params": [
        {
          "id": 0,
          "value": 0.0
        },
        {
          "id": 1,
          "value": 0.0
        },
        {
          "id": 2,
          "value": 0.0
        },
        {
          "id": 3,
          "value": 1.0
        },
        {
          "id": 4,
          "value": 0.0
        }
      ],
      "leftModuleId": 166,
      "rightModuleId": 169,
      "data": {
        "nysthi_id": "monorecorder_L3HRK07c",
        "wavebits": 9,
        "rms_time": 0.00100000005,
        "peak_time": 0.5,
        "m_invertphase": false,
        "m_autosave": true,
        "m_attenuation": 1.0
      },
      "pos": [
        73,
        0
      ]
    },
    {
      "id": 169,
      "plugin": "NYSTHI",
      "version": "1.0.11",
      "model": "MonoRecorder",
      "params": [
        {
          "id": 0,
          "value": 0.0
        },
        {
          "id": 1,
          "value": 0.0
        },
        {
          "id": 2,
          "value": 0.0
        },
        {
          "id": 3,
          "value": 1.0
        },
        {
          "id": 4,
          "value": 0.0
        }
      ],
      "leftModuleId": 168,
      "rightModuleId": 170,
      "data": {
        "nysthi_id": "monorecorder_L3HRK07c",
        "wavebits": 9,
        "rms_time": 0.00100000005,
        "peak_time": 0.5,
        "m_invertphase": false,
        "m_autosave": true,
        "m_attenuation": 1.0
      },
      "pos": [
        79,
        0
      ]
    },
    {
      "id": 170,
      "plugin": "NYSTHI",
      "version": "1.0.11",
      "model": "MonoRecorder",
      "params": [
        {
          "id": 0,
          "value": 0.0
        },
        {
          "id": 1,
          "value": 0.0
        },
        {
          "id": 2,
          "value": 0.0
        },
        {
          "id": 3,
          "value": 1.0
        },
        {
          "id": 4,
          "value": 0.0
        }
      ],
      "leftModuleId": 169,
      "rightModuleId": 171,
      "data": {
        "nysthi_id": "monorecorder_L3HRK07c",
        "wavebits": 9,
        "rms_time": 0.00100000005,
        "peak_time": 0.5,
        "m_invertphase": false,
        "m_autosave": true,
        "m_attenuation": 1.0
      },
      "pos": [
        85,
        0
      ]
    },
    {
      "id": 171,
      "plugin": "NYSTHI",
      "version": "1.0.11",
      "model": "MonoRecorder",
      "params": [
        {
          "id": 0,
          "value": 0.0
        },
        {
          "id": 1,
          "value": 0.0
        },
        {
          "id": 2,
          "value": 0.0
        },
        {
          "id": 3,
          "value": 1.0
        },
        {
          "id": 4,
          "value": 0.0
        }
      ],
      "leftModuleId": 170,
      "rightModuleId": 173,
      "data": {
        "nysthi_id": "monorecorder_L3HRK07c",
        "wavebits": 9,
        "rms_time": 0.00100000005,
        "peak_time": 0.5,
        "m_invertphase": false,
        "m_autosave": true,
        "m_attenuation": 1.0
      },
      "pos": [
        91,
        0
      ]
    },
    {
      "id": 173,
      "plugin": "NYSTHI",
      "version": "1.0.11",
      "model": "BIGBUTTON",
      "params": [],
      "leftModuleId": 171,
      "data": {
        "m_button_1_gater": false,
        "m_button_2_gater": false
      },
      "pos": [
        97,
        0
      ]
    }
  ],
  "cables": [
    {
      "id": 95,
      "outputModuleId": 47,
      "outputId": 0,
      "inputModuleId": 43,
      "inputId": 0,
      "color": "#0c8e15"
    },
    {
      "id": 103,
      "outputModuleId": 47,
      "outputId": 8,
      "inputModuleId": 43,
      "inputId": 3,
      "color": "#0c8e15"
    },
    {
      "id": 105,
      "outputModuleId": 50,
      "outputId": 0,
      "inputModuleId": 47,
      "inputId": 0,
      "color": "#0986ad"
    },
    {
      "id": 101,
      "outputModuleId": 43,
      "outputId": 0,
      "inputModuleId": 51,
      "inputId": 0,
      "color": "#0986ad"
    },
    {
      "id": 107,
      "outputModuleId": 52,
      "outputId": 0,
      "inputModuleId": 51,
      "inputId": 1,
      "color": "#0c8e15"
    },
    {
      "id": 108,
      "outputModuleId": 42,
      "outputId": 1,
      "inputModuleId": 53,
      "inputId": 0,
      "color": "#c91847"
    },
    {
      "id": 110,
      "outputModuleId": 55,
      "outputId": 0,
      "inputModuleId": 54,
      "inputId": 1,
      "color": "#c9b70e"
    },
    {
      "id": 112,
      "outputModuleId": 56,
      "outputId": 0,
      "inputModuleId": 55,
      "inputId": 0,
      "color": "#c91847"
    },
    {
      "id": 111,
      "outputModuleId": 54,
      "outputId": 2,
      "inputModuleId": 57,
      "inputId": 0,
      "color": "#0c8e15"
    },
    {
      "id": 114,
      "outputModuleId": 58,
      "outputId": 2,
      "inputModuleId": 59,
      "inputId": 0,
      "color": "#c9b70e"
    },
    {
      "id": 115,
      "outputModuleId": 55,
      "outputId": 0,
      "inputModuleId": 58,
      "inputId": 1,
      "color": "#0c8e15"
    },
    {
      "id": 117,
      "outputModuleId": 60,
      "outputId": 0,
      "inputModuleId": 41,
      "inputId": 1,
      "color": "#0986ad"
    },
    {
      "id": 118,
      "outputModuleId": 54,
      "outputId": 2,
      "inputModuleId": 58,
      "inputId": 4,
      "color": "#c9b70e"
    },
    {
      "id": 119,
      "outputModuleId": 61,
      "outputId": 0,
      "inputModuleId": 57,
      "inputId": 1,
      "color": "#0c8e15"
    },
    {
      "id": 120,
      "outputModuleId": 61,
      "outputId": 0,
      "inputModuleId": 59,
      "inputId": 1,
      "color": "#c91847"
    },
    {
      "id": 123,
      "outputModuleId": 47,
      "outputId": 3,
      "inputModuleId": 53,
      "inputId": 2,
      "color": "#0c8e15"
    },
    {
      "id": 124,
      "outputModuleId": 42,
      "outputId": 1,
      "inputModuleId": 62,
      "inputId": 2,
      "color": "#c91847"
    },
    {
      "id": 126,
      "outputModuleId": 62,
      "outputId": 6,
      "inputModuleId": 64,
      "inputId": 3,
      "color": "#0c8e15"
    },
    {
      "id": 113,
      "outputModuleId": 57,
      "outputId": 1,
      "inputModuleId": 64,
      "inputId": 5,
      "color": "#0986ad"
    },
    {
      "id": 127,
      "outputModuleId": 64,
      "outputId": 1,
      "inputModuleId": 60,
      "inputId": 5,
      "color": "#c91847"
    },
    {
      "id": 128,
      "outputModuleId": 62,
      "outputId": 6,
      "inputModuleId": 64,
      "inputId": 0,
      "color": "#c9b70e"
    },
    {
      "id": 116,
      "outputModuleId": 59,
      "outputId": 1,
      "inputModuleId": 64,
      "inputId": 2,
      "color": "#c91847"
    },
    {
      "id": 132,
      "outputModuleId": 68,
      "outputId": 0,
      "inputModuleId": 66,
      "inputId": 0,
      "color": "#c9b70e"
    },
    {
      "id": 134,
      "outputModuleId": 67,
      "outputId": 1,
      "inputModuleId": 69,
      "inputId": 0,
      "color": "#c91847"
    },
    {
      "id": 135,
      "outputModuleId": 69,
      "outputId": 1,
      "inputModuleId": 70,
      "inputId": 0,
      "color": "#0986ad"
    },
    {
      "id": 136,
      "outputModuleId": 69,
      "outputId": 1,
      "inputModuleId": 70,
      "inputId": 1,
      "color": "#c9b70e"
    },
    {
      "id": 109,
      "outputModuleId": 53,
      "outputId": 14,
      "inputModuleId": 68,
      "inputId": 1,
      "color": "#0986ad"
    },
    {
      "id": 138,
      "outputModuleId": 68,
      "outputId": 1,
      "inputModuleId": 56,
      "inputId": 0,
      "color": "#c91847"
    },
    {
      "id": 137,
      "outputModuleId": 70,
      "outputId": 0,
      "inputModuleId": 71,
      "inputId": 0,
      "color": "#0c8e15"
    },
    {
      "id": 139,
      "outputModuleId": 70,
      "outputId": 1,
      "inputModuleId": 71,
      "inputId": 5,
      "color": "#0986ad"
    },
    {
      "id": 140,
      "outputModuleId": 71,
      "outputId": 0,
      "inputModuleId": 41,
      "inputId": 2,
      "color": "#c9b70e"
    },
    {
      "id": 142,
      "outputModuleId": 66,
      "outputId": 0,
      "inputModuleId": 67,
      "inputId": 1,
      "color": "#c91847"
    },
    {
      "id": 143,
      "outputModuleId": 73,
      "outputId": 0,
      "inputModuleId": 68,
      "inputId": 0,
      "color": "#0986ad"
    },
    {
      "id": 106,
      "outputModuleId": 51,
      "outputId": 1,
      "inputModuleId": 74,
      "inputId": 0,
      "color": "#c9b70e"
    },
    {
      "id": 145,
      "outputModuleId": 51,
      "outputId": 3,
      "inputModuleId": 74,
      "inputId": 1,
      "color": "#c91847"
    },
    {
      "id": 146,
      "outputModuleId": 74,
      "outputId": 0,
      "inputModuleId": 75,
      "inputId": 0,
      "color": "#0986ad"
    },
    {
      "id": 147,
      "outputModuleId": 74,
      "outputId": 1,
      "inputModuleId": 75,
      "inputId": 5,
      "color": "#c9b70e"
    },
    {
      "id": 148,
      "outputModuleId": 75,
      "outputId": 0,
      "inputModuleId": 41,
      "inputId": 0,
      "color": "#c91847"
    },
    {
      "id": 129,
      "outputModuleId": 64,
      "outputId": 0,
      "inputModuleId": 60,
      "inputId": 0,
      "color": "#0c8e15"
    },
    {
      "id": 80,
      "outputModuleId": 41,
      "outputId": 0,
      "inputModuleId": 76,
      "inputId": 0,
      "color": "#c91847"
    },
    {
      "id": 81,
      "outputModuleId": 41,
      "outputId": 1,
      "inputModuleId": 76,
      "inputId": 1,
      "color": "#0986ad"
    },
    {
      "id": 150,
      "outputModuleId": 76,
      "outputId": 0,
      "inputModuleId": 77,
      "inputId": 2,
      "color": "#c9b70e"
    },
    {
      "id": 152,
      "outputModuleId": 77,
      "outputId": 0,
      "inputModuleId": 1,
      "inputId": 0,
      "color": "#c9b70e"
    },
    {
      "id": 151,
      "outputModuleId": 76,
      "outputId": 1,
      "inputModuleId": 77,
      "inputId": 3,
      "color": "#c91847"
    },
    {
      "id": 153,
      "outputModuleId": 77,
      "outputId": 1,
      "inputModuleId": 1,
      "inputId": 1,
      "color": "#0c8e15"
    },
    {
      "id": 131,
      "outputModuleId": 65,
      "outputId": 14,
      "inputModuleId": 73,
      "inputId": 0,
      "color": "#0986ad"
    },
    {
      "id": 130,
      "outputModuleId": 42,
      "outputId": 2,
      "inputModuleId": 65,
      "inputId": 0,
      "color": "#c91847"
    },
    {
      "id": 157,
      "outputModuleId": 78,
      "outputId": 14,
      "inputModuleId": 79,
      "inputId": 0,
      "color": "#c9b70e"
    },
    {
      "id": 158,
      "outputModuleId": 79,
      "outputId": 0,
      "inputModuleId": 80,
      "inputId": 0,
      "color": "#c91847"
    },
    {
      "id": 159,
      "outputModuleId": 80,
      "outputId": 0,
      "inputModuleId": 81,
      "inputId": 0,
      "color": "#0986ad"
    },
    {
      "id": 160,
      "outputModuleId": 81,
      "outputId": 0,
      "inputModuleId": 82,
      "inputId": 1,
      "color": "#c9b70e"
    },
    {
      "id": 161,
      "outputModuleId": 82,
      "outputId": 1,
      "inputModuleId": 83,
      "inputId": 0,
      "color": "#c91847"
    },
    {
      "id": 162,
      "outputModuleId": 83,
      "outputId": 1,
      "inputModuleId": 84,
      "inputId": 0,
      "color": "#0986ad"
    },
    {
      "id": 163,
      "outputModuleId": 83,
      "outputId": 1,
      "inputModuleId": 84,
      "inputId": 1,
      "color": "#c9b70e"
    },
    {
      "id": 166,
      "outputModuleId": 85,
      "outputId": 0,
      "inputModuleId": 41,
      "inputId": 3,
      "color": "#c9b70e"
    },
    {
      "id": 168,
      "outputModuleId": 56,
      "outputId": 0,
      "inputModuleId": 43,
      "inputId": 1,
      "color": "#c91847"
    },
    {
      "id": 164,
      "outputModuleId": 84,
      "outputId": 0,
      "inputModuleId": 85,
      "inputId": 0,
      "color": "#0c8e15"
    },
    {
      "id": 165,
      "outputModuleId": 84,
      "outputId": 1,
      "inputModuleId": 85,
      "inputId": 5,
      "color": "#c91847"
    },
    {
      "id": 172,
      "outputModuleId": 87,
      "outputId": 1,
      "inputModuleId": 88,
      "inputId": 0,
      "color": "#0986ad"
    },
    {
      "id": 173,
      "outputModuleId": 87,
      "outputId": 0,
      "inputModuleId": 88,
      "inputId": 5,
      "color": "#c9b70e"
    },
    {
      "id": 174,
      "outputModuleId": 88,
      "outputId": 0,
      "inputModuleId": 41,
      "inputId": 4,
      "color": "#0c8e15"
    },
    {
      "id": 179,
      "outputModuleId": 89,
      "outputId": 0,
      "inputModuleId": 87,
      "inputId": 1,
      "color": "#0986ad"
    },
    {
      "id": 156,
      "outputModuleId": 42,
      "outputId": 0,
      "inputModuleId": 78,
      "inputId": 0,
      "color": "#c91847"
    },
    {
      "id": 181,
      "outputModuleId": 42,
      "outputId": 3,
      "inputModuleId": 86,
      "inputId": 0,
      "color": "#0c8e15"
    },
    {
      "id": 182,
      "outputModuleId": 86,
      "outputId": 2,
      "inputModuleId": 92,
      "inputId": 17,
      "color": "#c91847"
    },
    {
      "id": 184,
      "outputModuleId": 47,
      "outputId": 6,
      "inputModuleId": 92,
      "inputId": 1,
      "color": "#0c8e15"
    },
    {
      "id": 170,
      "outputModuleId": 86,
      "outputId": 0,
      "inputModuleId": 87,
      "inputId": 16,
      "color": "#c9b70e"
    },
    {
      "id": 171,
      "outputModuleId": 86,
      "outputId": 0,
      "inputModuleId": 87,
      "inputId": 17,
      "color": "#0c8e15"
    },
    {
      "id": 185,
      "outputModuleId": 92,
      "outputId": 1,
      "inputModuleId": 88,
      "inputId": 1,
      "color": "#c91847"
    },
    {
      "id": 186,
      "outputModuleId": 66,
      "outputId": 0,
      "inputModuleId": 92,
      "inputId": 33,
      "color": "#0986ad"
    },
    {
      "id": 187,
      "outputModuleId": 81,
      "outputId": 0,
      "inputModuleId": 87,
      "inputId": 0,
      "color": "#c9b70e"
    },
    {
      "id": 380,
      "outputModuleId": 41,
      "outputId": 2,
      "inputModuleId": 166,
      "inputId": 0,
      "color": "#c91847"
    },
    {
      "id": 381,
      "outputModuleId": 41,
      "outputId": 3,
      "inputModuleId": 168,
      "inputId": 0,
      "color": "#c9b70e"
    },
    {
      "id": 382,
      "outputModuleId": 41,
      "outputId": 4,
      "inputModuleId": 169,
      "inputId": 0,
      "color": "#0c8e15"
    },
    {
      "id": 383,
      "outputModuleId": 41,
      "outputId": 5,
      "inputModuleId": 170,
      "inputId": 0,
      "color": "#c91847"
    },
    {
      "id": 384,
      "outputModuleId": 41,
      "outputId": 6,
      "inputModuleId": 171,
      "inputId": 0,
      "color": "#0986ad"
    },
    {
      "id": 388,
      "outputModuleId": 173,
      "outputId": 0,
      "inputModuleId": 166,
      "inputId": 1,
      "color": "#0c8e15"
    },
    {
      "id": 390,
      "outputModuleId": 173,
      "outputId": 0,
      "inputModuleId": 168,
      "inputId": 1,
      "color": "#c9b70e"
    },
    {
      "id": 391,
      "outputModuleId": 173,
      "outputId": 0,
      "inputModuleId": 169,
      "inputId": 1,
      "color": "#0c8e15"
    },
    {
      "id": 392,
      "outputModuleId": 173,
      "outputId": 0,
      "inputModuleId": 170,
      "inputId": 1,
      "color": "#c91847"
    },
    {
      "id": 393,
      "outputModuleId": 173,
      "outputId": 0,
      "inputModuleId": 171,
      "inputId": 1,
      "color": "#0986ad"
    },
    {
      "id": 394,
      "outputModuleId": 173,
      "outputId": 2,
      "inputModuleId": 166,
      "inputId": 2,
      "color": "#c9b70e"
    },
    {
      "id": 395,
      "outputModuleId": 173,
      "outputId": 2,
      "inputModuleId": 168,
      "inputId": 2,
      "color": "#0c8e15"
    },
    {
      "id": 396,
      "outputModuleId": 173,
      "outputId": 2,
      "inputModuleId": 169,
      "inputId": 2,
      "color": "#c91847"
    },
    {
      "id": 397,
      "outputModuleId": 173,
      "outputId": 2,
      "inputModuleId": 170,
      "inputId": 2,
      "color": "#0986ad"
    },
    {
      "id": 398,
      "outputModuleId": 173,
      "outputId": 2,
      "inputModuleId": 171,
      "inputId": 2,
      "color": "#c9b70e"
    }
  ]
}