{
  "version": "1.1.6",
  "modules": [
    {
      "id": 1,
      "plugin": "Core",
      "version": "1.1.6",
      "model": "AudioInterface",
      "params": [],
      "leftModuleId": 121,
      "rightModuleId": 99,
      "data": {
        "audio": {
          "driver": 5,
          "deviceName": "Apple Inc.: Built-in Output",
          "offset": 0,
          "maxChannels": 8,
          "sampleRate": 44100,
          "blockSize": 256
        }
      },
      "pos": [
        104,
        1
      ]
    },
    {
      "id": 94,
      "plugin": "squinkylabs-plug1",
      "version": "1.0.7",
      "model": "squinkylabs-mix8",
      "params": [
        {
          "id": 0,
          "value": 0.800000012
        },
        {
          "id": 1,
          "value": 0.0
        },
        {
          "id": 2,
          "value": 0.800000012
        },
        {
          "id": 3,
          "value": 0.800000012
        },
        {
          "id": 4,
          "value": 0.480499774
        },
        {
          "id": 5,
          "value": 0.800000012
        },
        {
          "id": 6,
          "value": 0.511999965
        },
        {
          "id": 7,
          "value": 0.800000012
        },
        {
          "id": 8,
          "value": 0.800000012
        },
        {
          "id": 9,
          "value": 0.800000012
        },
        {
          "id": 10,
          "value": 0.0
        },
        {
          "id": 11,
          "value": 0.0
        },
        {
          "id": 12,
          "value": 0.0
        },
        {
          "id": 13,
          "value": 0.0
        },
        {
          "id": 14,
          "value": 0.0
        },
        {
          "id": 15,
          "value": 0.0
        },
        {
          "id": 16,
          "value": 0.0
        },
        {
          "id": 17,
          "value": 0.0
        },
        {
          "id": 18,
          "value": 0.0
        },
        {
          "id": 19,
          "value": 0.0
        },
        {
          "id": 20,
          "value": 0.0
        },
        {
          "id": 21,
          "value": 0.0
        },
        {
          "id": 22,
          "value": 0.0
        },
        {
          "id": 23,
          "value": 0.0
        },
        {
          "id": 24,
          "value": 0.0
        },
        {
          "id": 25,
          "value": 0.0
        },
        {
          "id": 26,
          "value": 0.0
        },
        {
          "id": 27,
          "value": 0.0
        },
        {
          "id": 28,
          "value": 0.0
        },
        {
          "id": 29,
          "value": 0.0
        },
        {
          "id": 30,
          "value": 0.0
        },
        {
          "id": 31,
          "value": 0.0
        },
        {
          "id": 32,
          "value": 0.0
        },
        {
          "id": 33,
          "value": 0.0
        },
        {
          "id": 34,
          "value": 0.0
        },
        {
          "id": 35,
          "value": 0.0
        },
        {
          "id": 36,
          "value": 0.0
        },
        {
          "id": 37,
          "value": 0.0
        },
        {
          "id": 38,
          "value": 0.0
        },
        {
          "id": 39,
          "value": 0.0
        },
        {
          "id": 40,
          "value": 0.0
        },
        {
          "id": 41,
          "value": 0.0
        },
        {
          "id": 42,
          "value": 0.0
        }
      ],
      "leftModuleId": 95,
      "rightModuleId": 100,
      "pos": [
        60,
        1
      ]
    },
    {
      "id": 95,
      "plugin": "ImpromptuModular",
      "version": "1.1.4",
      "model": "Clocked",
      "params": [
        {
          "id": 0,
          "value": 60.0
        },
        {
          "id": 1,
          "value": -2.0
        },
        {
          "id": 2,
          "value": -5.0
        },
        {
          "id": 3,
          "value": 1.0
        },
        {
          "id": 4,
          "value": 0.0
        },
        {
          "id": 5,
          "value": 0.0
        },
        {
          "id": 6,
          "value": 0.0
        },
        {
          "id": 7,
          "value": 0.0
        },
        {
          "id": 8,
          "value": 0.5
        },
        {
          "id": 9,
          "value": 0.5
        },
        {
          "id": 10,
          "value": 0.5
        },
        {
          "id": 11,
          "value": 0.5
        },
        {
          "id": 12,
          "value": 0.0
        },
        {
          "id": 13,
          "value": 0.0
        },
        {
          "id": 14,
          "value": 0.0
        },
        {
          "id": 15,
          "value": 0.0
        },
        {
          "id": 16,
          "value": 0.0
        },
        {
          "id": 17,
          "value": 0.0
        },
        {
          "id": 18,
          "value": 0.0
        },
        {
          "id": 19,
          "value": 0.0
        }
      ],
      "leftModuleId": 103,
      "rightModuleId": 94,
      "data": {
        "panelTheme": 0,
        "running": false,
        "displayDelayNoteMode": true,
        "bpmDetectionMode": false,
        "restartOnStopStartRun": 0,
        "sendResetOnRestart": false,
        "ppqn": 4,
        "resetClockOutputsHigh": true,
        "momentaryRunInput": true
      },
      "pos": [
        40,
        1
      ]
    },
    {
      "id": 99,
      "plugin": "NYSTHI",
      "version": "1.0.11",
      "model": "MasterRecorder2",
      "params": [
        {
          "id": 0,
          "value": 0.0
        },
        {
          "id": 1,
          "value": 0.0
        },
        {
          "id": 2,
          "value": 0.0
        },
        {
          "id": 3,
          "value": 1.0
        },
        {
          "id": 4,
          "value": 1.0
        },
        {
          "id": 5,
          "value": 0.0
        },
        {
          "id": 6,
          "value": 0.0
        },
        {
          "id": 7,
          "value": 0.0
        },
        {
          "id": 8,
          "value": 0.0
        },
        {
          "id": 9,
          "value": 0.00499999989
        },
        {
          "id": 10,
          "value": 0.00999999978
        },
        {
          "id": 11,
          "value": 2.0
        },
        {
          "id": 12,
          "value": 0.5
        },
        {
          "id": 13,
          "value": 0.0
        },
        {
          "id": 14,
          "value": 0.100000001
        },
        {
          "id": 15,
          "value": 0.0
        },
        {
          "id": 16,
          "value": 1.0
        }
      ],
      "leftModuleId": 1,
      "rightModuleId": 122,
      "data": {
        "wavebits": 9,
        "rms_time": 0.00100000005,
        "peak_time": 0.5,
        "m_invertphaseleft": false,
        "m_invertphaseright": false,
        "m_locklevelleftright": false,
        "m_kompressor_active": false,
        "m_distort": false,
        "m_attenuation": 1.0,
        "m_enconding_format": "wav",
        "m_encoding_bitrate": 320000,
        "m_autoenumeratefiles": true
      },
      "pos": [
        114,
        1
      ]
    },
    {
      "id": 100,
      "plugin": "VultModulesFree",
      "version": "1.9.0",
      "model": "Decline",
      "params": [
        {
          "id": 0,
          "value": 3.70661998
        },
        {
          "id": 1,
          "value": 0.0
        },
        {
          "id": 2,
          "value": -1.50599003
        },
        {
          "id": 3,
          "value": 0.0
        },
        {
          "id": 4,
          "value": 1.18441999
        },
        {
          "id": 5,
          "value": 0.0
        },
        {
          "id": 6,
          "value": 1.39999998
        },
        {
          "id": 7,
          "value": 1.18441999
        },
        {
          "id": 8,
          "value": 0.0
        },
        {
          "id": 9,
          "value": 1.39999998
        },
        {
          "id": 10,
          "value": 0.0
        }
      ],
      "leftModuleId": 94,
      "rightModuleId": 101,
      "pos": [
        86,
        1
      ]
    },
    {
      "id": 101,
      "plugin": "VultModulesFree",
      "version": "1.9.0",
      "model": "Disjoint",
      "params": [
        {
          "id": 0,
          "value": 0.0
        },
        {
          "id": 1,
          "value": 0.0
        },
        {
          "id": 2,
          "value": 0.0
        },
        {
          "id": 3,
          "value": 0.0
        }
      ],
      "leftModuleId": 100,
      "rightModuleId": 121,
      "pos": [
        92,
        1
      ]
    },
    {
      "id": 103,
      "plugin": "Fundamental",
      "version": "1.4.0",
      "model": "Scope",
      "params": [
        {
          "id": 0,
          "value": 0.0
        },
        {
          "id": 1,
          "value": 0.0
        },
        {
          "id": 2,
          "value": 0.0
        },
        {
          "id": 3,
          "value": 0.0
        },
        {
          "id": 4,
          "value": 8.88499928
        },
        {
          "id": 5,
          "value": 0.0
        },
        {
          "id": 6,
          "value": 0.0
        },
        {
          "id": 7,
          "value": 0.0
        }
      ],
      "leftModuleId": 187,
      "rightModuleId": 95,
      "data": {
        "lissajous": 0,
        "external": 0
      },
      "pos": [
        27,
        1
      ]
    },
    {
      "id": 111,
      "plugin": "Befaco",
      "version": "1.0.1",
      "model": "Rampage",
      "params": [
        {
          "id": 0,
          "value": 1.0
        },
        {
          "id": 1,
          "value": 0.0
        },
        {
          "id": 2,
          "value": 0.0
        },
        {
          "id": 3,
          "value": 0.0
        },
        {
          "id": 4,
          "value": 0.0
        },
        {
          "id": 5,
          "value": 0.0
        },
        {
          "id": 6,
          "value": 0.0
        },
        {
          "id": 7,
          "value": 0.0
        },
        {
          "id": 8,
          "value": 0.0
        },
        {
          "id": 9,
          "value": 0.0
        },
        {
          "id": 10,
          "value": 0.0
        },
        {
          "id": 11,
          "value": 0.0
        },
        {
          "id": 12,
          "value": 0.5
        }
      ],
      "leftModuleId": 112,
      "rightModuleId": 117,
      "pos": [
        79,
        2
      ]
    },
    {
      "id": 112,
      "plugin": "AudibleInstruments",
      "version": "1.0.2",
      "model": "Braids",
      "params": [
        {
          "id": 0,
          "value": 0.0
        },
        {
          "id": 1,
          "value": -1.87999964
        },
        {
          "id": 2,
          "value": 0.0
        },
        {
          "id": 3,
          "value": 0.5
        },
        {
          "id": 4,
          "value": 0.0
        },
        {
          "id": 5,
          "value": 0.5
        },
        {
          "id": 6,
          "value": 0.724500895
        }
      ],
      "leftModuleId": 116,
      "rightModuleId": 111,
      "data": {
        "settings": [
          33,
          0,
          0,
          0,
          0,
          0,
          0,
          0,
          0,
          0,
          0,
          0,
          0,
          0,
          0,
          0,
          0,
          0,
          0,
          0
        ],
        "lowCpu": false
      },
      "pos": [
        63,
        2
      ]
    },
    {
      "id": 113,
      "plugin": "StellareModular",
      "version": "1.0.0",
      "model": "TuringMachine",
      "params": [
        {
          "id": 0,
          "value": 0.5
        },
        {
          "id": 1,
          "value": 0.5
        },
        {
          "id": 2,
          "value": 0.5
        },
        {
          "id": 3,
          "value": 0.5
        },
        {
          "id": 4,
          "value": 0.5
        },
        {
          "id": 5,
          "value": 0.0
        },
        {
          "id": 6,
          "value": 7.0
        },
        {
          "id": 7,
          "value": 0.5
        },
        {
          "id": 8,
          "value": 0.0
        },
        {
          "id": 9,
          "value": 0.0
        },
        {
          "id": 10,
          "value": 0.0
        },
        {
          "id": 11,
          "value": 0.0
        },
        {
          "id": 12,
          "value": 0.0
        }
      ],
      "leftModuleId": 182,
      "rightModuleId": 115,
      "data": {
        "pulses_mode": 0
      },
      "pos": [
        27,
        2
      ]
    },
    {
      "id": 114,
      "plugin": "ML_modules",
      "version": "1.0.5",
      "model": "Quantum",
      "params": [
        {
          "id": 0,
          "value": 0.0
        },
        {
          "id": 1,
          "value": 0.0
        },
        {
          "id": 2,
          "value": 0.0
        },
        {
          "id": 3,
          "value": 0.0
        },
        {
          "id": 4,
          "value": 0.0
        },
        {
          "id": 5,
          "value": 0.0
        },
        {
          "id": 6,
          "value": 0.0
        },
        {
          "id": 7,
          "value": 0.0
        },
        {
          "id": 8,
          "value": 0.0
        },
        {
          "id": 9,
          "value": 0.0
        },
        {
          "id": 10,
          "value": 0.0
        },
        {
          "id": 11,
          "value": 0.0
        }
      ],
      "leftModuleId": 115,
      "rightModuleId": 116,
      "data": {
        "scale": [
          0,
          0,
          0,
          1,
          0,
          0,
          1,
          0,
          0,
          0,
          1,
          0
        ],
        "mode": 1,
        "transpose_select": 1,
        "toggle_mode": 0
      },
      "pos": [
        50,
        2
      ]
    },
    {
      "id": 115,
      "plugin": "Befaco",
      "version": "1.0.1",
      "model": "DualAtenuverter",
      "params": [
        {
          "id": 0,
          "value": 0.0749999955
        },
        {
          "id": 1,
          "value": 0.0
        },
        {
          "id": 2,
          "value": 0.0
        },
        {
          "id": 3,
          "value": 0.0
        }
      ],
      "leftModuleId": 113,
      "rightModuleId": 114,
      "pos": [
        45,
        2
      ]
    },
    {
      "id": 116,
      "plugin": "BaconMusic",
      "version": "1.0.2",
      "model": "Glissinator",
      "params": [
        {
          "id": 0,
          "value": 0.100000001
        }
      ],
      "leftModuleId": 114,
      "rightModuleId": 112,
      "pos": [
        58,
        2
      ]
    },
    {
      "id": 117,
      "plugin": "Fundamental",
      "version": "1.4.0",
      "model": "VCA",
      "params": [
        {
          "id": 0,
          "value": 1.0
        },
        {
          "id": 1,
          "value": 1.0
        }
      ],
      "leftModuleId": 111,
      "rightModuleId": 120,
      "pos": [
        97,
        2
      ]
    },
    {
      "id": 118,
      "plugin": "Valley",
      "version": "1.0.1",
      "model": "Plateau",
      "params": [
        {
          "id": 0,
          "value": 1.0
        },
        {
          "id": 1,
          "value": 0.199999765
        },
        {
          "id": 2,
          "value": 0.0
        },
        {
          "id": 3,
          "value": 10.0
        },
        {
          "id": 4,
          "value": 10.0
        },
        {
          "id": 5,
          "value": 0.5
        },
        {
          "id": 6,
          "value": 10.0
        },
        {
          "id": 7,
          "value": 0.549950004
        },
        {
          "id": 8,
          "value": 10.0
        },
        {
          "id": 9,
          "value": 10.0
        },
        {
          "id": 10,
          "value": 0.0
        },
        {
          "id": 11,
          "value": 0.5
        },
        {
          "id": 12,
          "value": 0.5
        },
        {
          "id": 13,
          "value": 0.0
        },
        {
          "id": 14,
          "value": 0.0
        },
        {
          "id": 15,
          "value": 0.0
        },
        {
          "id": 16,
          "value": 0.0
        },
        {
          "id": 17,
          "value": 0.0
        },
        {
          "id": 18,
          "value": 0.0
        },
        {
          "id": 19,
          "value": 0.0
        },
        {
          "id": 20,
          "value": 0.0
        },
        {
          "id": 21,
          "value": 0.0
        },
        {
          "id": 22,
          "value": 0.0
        },
        {
          "id": 23,
          "value": 0.0
        },
        {
          "id": 24,
          "value": 0.0
        },
        {
          "id": 25,
          "value": 0.0
        },
        {
          "id": 26,
          "value": 0.0
        },
        {
          "id": 27,
          "value": 0.0
        },
        {
          "id": 28,
          "value": 0.0
        },
        {
          "id": 29,
          "value": 0.0
        },
        {
          "id": 30,
          "value": 1.0
        }
      ],
      "leftModuleId": 120,
      "rightModuleId": 119,
      "data": {
        "frozen": false,
        "freezeToggle": false,
        "panelStyle": 0,
        "tuned": 0,
        "diffuseInput": 1,
        "preDelayCVSens": 0,
        "inputSensitivity": 0,
        "outputSaturation": 0
      },
      "pos": [
        112,
        2
      ]
    },
    {
      "id": 119,
      "plugin": "NYSTHI",
      "version": "1.0.11",
      "model": "M2",
      "params": [
        {
          "id": 0,
          "value": 1.0
        },
        {
          "id": 1,
          "value": 1.0
        },
        {
          "id": 2,
          "value": 1.0
        },
        {
          "id": 3,
          "value": 1.0
        },
        {
          "id": 4,
          "value": 0.0
        },
        {
          "id": 5,
          "value": 0.0
        },
        {
          "id": 6,
          "value": 0.0
        },
        {
          "id": 7,
          "value": 0.0
        },
        {
          "id": 8,
          "value": 0.0
        },
        {
          "id": 9,
          "value": 0.0
        },
        {
          "id": 10,
          "value": 1.0
        }
      ],
      "leftModuleId": 118,
      "data": {
        "m_mute0": false,
        "m_mute1": false,
        "m_mute2": false,
        "m_mute3": false,
        "m_4_quadrants_VCA": true,
        "m_exponential_levels": false
      },
      "pos": [
        124,
        2
      ]
    },
    {
      "id": 120,
      "plugin": "VultModulesFree",
      "version": "1.9.0",
      "model": "Lateralus",
      "params": [
        {
          "id": 0,
          "value": 0.5
        },
        {
          "id": 1,
          "value": 0.0
        },
        {
          "id": 2,
          "value": 0.0
        },
        {
          "id": 3,
          "value": 0.0
        },
        {
          "id": 4,
          "value": 0.600000024
        },
        {
          "id": 5,
          "value": 0.0
        },
        {
          "id": 6,
          "value": 0.0
        }
      ],
      "leftModuleId": 117,
      "rightModuleId": 118,
      "pos": [
        102,
        2
      ]
    },
    {
      "id": 121,
      "plugin": "Valley",
      "version": "1.0.1",
      "model": "Feline",
      "params": [
        {
          "id": 0,
          "value": 10.0
        },
        {
          "id": 1,
          "value": 0.0
        },
        {
          "id": 2,
          "value": 0.0
        },
        {
          "id": 3,
          "value": 0.0
        },
        {
          "id": 4,
          "value": 0.0
        },
        {
          "id": 5,
          "value": 0.0
        },
        {
          "id": 6,
          "value": 0.0
        },
        {
          "id": 7,
          "value": 0.0
        },
        {
          "id": 8,
          "value": 0.0
        },
        {
          "id": 9,
          "value": 0.0
        },
        {
          "id": 10,
          "value": 0.0
        },
        {
          "id": 11,
          "value": 0.0
        },
        {
          "id": 12,
          "value": 0.0
        },
        {
          "id": 13,
          "value": 0.0
        },
        {
          "id": 14,
          "value": 0.0
        },
        {
          "id": 15,
          "value": 0.0
        },
        {
          "id": 16,
          "value": 0.0
        }
      ],
      "leftModuleId": 101,
      "rightModuleId": 1,
      "data": {
        "panelStyle": 0
      },
      "pos": [
        96,
        1
      ]
    },
    {
      "id": 122,
      "plugin": "NYSTHI",
      "version": "1.0.11",
      "model": "NYSTHIOMETER",
      "params": [],
      "leftModuleId": 99,
      "rightModuleId": 123,
      "data": {},
      "pos": [
        123,
        1
      ]
    },
    {
      "id": 123,
      "plugin": "NYSTHI",
      "version": "1.0.11",
      "model": "NYSTHIOMETER",
      "params": [],
      "leftModuleId": 122,
      "data": {},
      "pos": [
        124,
        1
      ]
    },
    {
      "id": 166,
      "plugin": "StellareModular",
      "version": "1.0.0",
      "model": "TuringMachine",
      "params": [
        {
          "id": 0,
          "value": 0.23149997
        },
        {
          "id": 1,
          "value": 0.47149992
        },
        {
          "id": 2,
          "value": 0.303499997
        },
        {
          "id": 3,
          "value": 0.379999995
        },
        {
          "id": 4,
          "value": 0.243499979
        },
        {
          "id": 5,
          "value": 0.245999977
        },
        {
          "id": 6,
          "value": 7.0
        },
        {
          "id": 7,
          "value": 0.5
        },
        {
          "id": 8,
          "value": 0.0
        },
        {
          "id": 9,
          "value": 0.0
        },
        {
          "id": 10,
          "value": 0.0
        },
        {
          "id": 11,
          "value": 0.0
        },
        {
          "id": 12,
          "value": 0.0
        }
      ],
      "leftModuleId": 184,
      "rightModuleId": 167,
      "data": {
        "pulses_mode": 0
      },
      "pos": [
        27,
        3
      ]
    },
    {
      "id": 167,
      "plugin": "Befaco",
      "version": "1.0.1",
      "model": "DualAtenuverter",
      "params": [
        {
          "id": 0,
          "value": 0.204000086
        },
        {
          "id": 1,
          "value": 0.0
        },
        {
          "id": 2,
          "value": 0.0
        },
        {
          "id": 3,
          "value": 0.0
        }
      ],
      "leftModuleId": 166,
      "rightModuleId": 168,
      "pos": [
        45,
        3
      ]
    },
    {
      "id": 168,
      "plugin": "ML_modules",
      "version": "1.0.5",
      "model": "Quantum",
      "params": [
        {
          "id": 0,
          "value": 0.0
        },
        {
          "id": 1,
          "value": 0.0
        },
        {
          "id": 2,
          "value": 0.0
        },
        {
          "id": 3,
          "value": 0.0
        },
        {
          "id": 4,
          "value": 0.0
        },
        {
          "id": 5,
          "value": 0.0
        },
        {
          "id": 6,
          "value": 0.0
        },
        {
          "id": 7,
          "value": 0.0
        },
        {
          "id": 8,
          "value": 0.0
        },
        {
          "id": 9,
          "value": 0.0
        },
        {
          "id": 10,
          "value": 0.0
        },
        {
          "id": 11,
          "value": 0.0
        }
      ],
      "leftModuleId": 167,
      "rightModuleId": 169,
      "data": {
        "scale": [
          0,
          0,
          0,
          1,
          0,
          0,
          1,
          0,
          0,
          0,
          1,
          0
        ],
        "mode": 1,
        "transpose_select": 1,
        "toggle_mode": 0
      },
      "pos": [
        50,
        3
      ]
    },
    {
      "id": 169,
      "plugin": "BaconMusic",
      "version": "1.0.2",
      "model": "Glissinator",
      "params": [
        {
          "id": 0,
          "value": 0.269999951
        }
      ],
      "leftModuleId": 168,
      "rightModuleId": 170,
      "pos": [
        58,
        3
      ]
    },
    {
      "id": 170,
      "plugin": "Befaco",
      "version": "1.0.1",
      "model": "EvenVCO",
      "params": [
        {
          "id": 0,
          "value": -2.0
        },
        {
          "id": 1,
          "value": 0.0
        },
        {
          "id": 2,
          "value": 0.0
        }
      ],
      "leftModuleId": 169,
      "rightModuleId": 171,
      "pos": [
        63,
        3
      ]
    },
    {
      "id": 171,
      "plugin": "Fundamental",
      "version": "1.4.0",
      "model": "VCA",
      "params": [
        {
          "id": 0,
          "value": 1.0
        },
        {
          "id": 1,
          "value": 1.0
        }
      ],
      "leftModuleId": 170,
      "rightModuleId": 172,
      "pos": [
        71,
        3
      ]
    },
    {
      "id": 172,
      "plugin": "Befaco",
      "version": "1.0.1",
      "model": "Rampage",
      "params": [
        {
          "id": 0,
          "value": 0.0
        },
        {
          "id": 1,
          "value": 0.0
        },
        {
          "id": 2,
          "value": 0.0
        },
        {
          "id": 3,
          "value": 0.0
        },
        {
          "id": 4,
          "value": 0.0
        },
        {
          "id": 5,
          "value": 0.0
        },
        {
          "id": 6,
          "value": 0.558000028
        },
        {
          "id": 7,
          "value": 0.0
        },
        {
          "id": 8,
          "value": 0.573000193
        },
        {
          "id": 9,
          "value": 0.0
        },
        {
          "id": 10,
          "value": 0.0
        },
        {
          "id": 11,
          "value": 0.0
        },
        {
          "id": 12,
          "value": 0.5
        }
      ],
      "leftModuleId": 171,
      "rightModuleId": 173,
      "pos": [
        76,
        3
      ]
    },
    {
      "id": 173,
      "plugin": "VultModulesFree",
      "version": "1.9.0",
      "model": "Lateralus",
      "params": [
        {
          "id": 0,
          "value": 0.5
        },
        {
          "id": 1,
          "value": 0.0
        },
        {
          "id": 2,
          "value": 0.0
        },
        {
          "id": 3,
          "value": 0.0
        },
        {
          "id": 4,
          "value": 0.600000024
        },
        {
          "id": 5,
          "value": 0.0
        },
        {
          "id": 6,
          "value": 0.0
        }
      ],
      "leftModuleId": 172,
      "rightModuleId": 175,
      "pos": [
        94,
        3
      ]
    },
    {
      "id": 175,
      "plugin": "Valley",
      "version": "1.0.1",
      "model": "Plateau",
      "params": [
        {
          "id": 0,
          "value": 1.0
        },
        {
          "id": 1,
          "value": 0.5
        },
        {
          "id": 2,
          "value": 0.03675
        },
        {
          "id": 3,
          "value": 10.0
        },
        {
          "id": 4,
          "value": 10.0
        },
        {
          "id": 5,
          "value": 0.5
        },
        {
          "id": 6,
          "value": 10.0
        },
        {
          "id": 7,
          "value": 0.549950004
        },
        {
          "id": 8,
          "value": 10.0
        },
        {
          "id": 9,
          "value": 10.0
        },
        {
          "id": 10,
          "value": 0.0
        },
        {
          "id": 11,
          "value": 0.5
        },
        {
          "id": 12,
          "value": 0.5
        },
        {
          "id": 13,
          "value": 0.0
        },
        {
          "id": 14,
          "value": 0.0
        },
        {
          "id": 15,
          "value": 0.0
        },
        {
          "id": 16,
          "value": 0.0
        },
        {
          "id": 17,
          "value": 0.0
        },
        {
          "id": 18,
          "value": 0.0
        },
        {
          "id": 19,
          "value": 0.0
        },
        {
          "id": 20,
          "value": 0.0
        },
        {
          "id": 21,
          "value": 0.0
        },
        {
          "id": 22,
          "value": 0.0
        },
        {
          "id": 23,
          "value": 0.0
        },
        {
          "id": 24,
          "value": 0.0
        },
        {
          "id": 25,
          "value": 0.0
        },
        {
          "id": 26,
          "value": 0.0
        },
        {
          "id": 27,
          "value": 0.0
        },
        {
          "id": 28,
          "value": 0.0
        },
        {
          "id": 29,
          "value": 0.0
        },
        {
          "id": 30,
          "value": 1.0
        }
      ],
      "leftModuleId": 173,
      "rightModuleId": 176,
      "data": {
        "frozen": false,
        "freezeToggle": false,
        "panelStyle": 0,
        "tuned": 0,
        "diffuseInput": 1,
        "preDelayCVSens": 0,
        "inputSensitivity": 0,
        "outputSaturation": 0
      },
      "pos": [
        104,
        3
      ]
    },
    {
      "id": 176,
      "plugin": "NYSTHI",
      "version": "1.0.11",
      "model": "M2",
      "params": [
        {
          "id": 0,
          "value": 1.0
        },
        {
          "id": 1,
          "value": 1.0
        },
        {
          "id": 2,
          "value": 1.0
        },
        {
          "id": 3,
          "value": 1.0
        },
        {
          "id": 4,
          "value": 0.0
        },
        {
          "id": 5,
          "value": 0.0
        },
        {
          "id": 6,
          "value": 0.0
        },
        {
          "id": 7,
          "value": 0.0
        },
        {
          "id": 8,
          "value": 0.0
        },
        {
          "id": 9,
          "value": 0.0
        },
        {
          "id": 10,
          "value": 1.0
        }
      ],
      "leftModuleId": 175,
      "rightModuleId": 178,
      "data": {
        "m_mute0": false,
        "m_mute1": false,
        "m_mute2": false,
        "m_mute3": false,
        "m_4_quadrants_VCA": true,
        "m_exponential_levels": false
      },
      "pos": [
        116,
        3
      ]
    },
    {
      "id": 178,
      "plugin": "Fundamental",
      "version": "1.4.0",
      "model": "LFO2",
      "params": [
        {
          "id": 0,
          "value": 1.0
        },
        {
          "id": 1,
          "value": 1.0
        },
        {
          "id": 2,
          "value": 1.0
        },
        {
          "id": 3,
          "value": 1.5
        },
        {
          "id": 4,
          "value": 0.5
        }
      ],
      "leftModuleId": 176,
      "rightModuleId": 179,
      "pos": [
        117,
        3
      ]
    },
    {
      "id": 179,
      "plugin": "NYSTHI",
      "version": "1.0.11",
      "model": "NYSTHIOMETER",
      "params": [],
      "leftModuleId": 178,
      "rightModuleId": 181,
      "data": {},
      "pos": [
        123,
        3
      ]
    },
    {
      "id": 181,
      "plugin": "NYSTHI",
      "version": "1.0.11",
      "model": "NYSTHIOMETER",
      "params": [],
      "leftModuleId": 179,
      "data": {},
      "pos": [
        124,
        3
      ]
    },
    {
      "id": 182,
      "plugin": "squinkylabs-plug1",
      "version": "1.0.7",
      "model": "squinkylabs-coloredNoise",
      "params": [
        {
          "id": 0,
          "value": -3.4399972
        },
        {
          "id": 1,
          "value": -0.850000024
        }
      ],
      "leftModuleId": 183,
      "rightModuleId": 113,
      "pos": [
        21,
        2
      ]
    },
    {
      "id": 183,
      "plugin": "FrozenWasteland",
      "version": "1.12.0",
      "model": "BPMLFO",
      "params": [
        {
          "id": 0,
          "value": 1.0
        },
        {
          "id": 1,
          "value": 0.0
        },
        {
          "id": 2,
          "value": 2.0
        },
        {
          "id": 3,
          "value": 0.0
        },
        {
          "id": 4,
          "value": 0.0
        },
        {
          "id": 5,
          "value": 0.0
        },
        {
          "id": 6,
          "value": 0.0
        },
        {
          "id": 7,
          "value": 1.0
        },
        {
          "id": 8,
          "value": 1.0
        },
        {
          "id": 9,
          "value": 0.0
        }
      ],
      "rightModuleId": 182,
      "pos": [
        13,
        2
      ]
    },
    {
      "id": 184,
      "plugin": "Valley",
      "version": "1.0.1",
      "model": "Plateau",
      "params": [
        {
          "id": 0,
          "value": 0.890500009
        },
        {
          "id": 1,
          "value": 0.459499806
        },
        {
          "id": 2,
          "value": 0.0
        },
        {
          "id": 3,
          "value": 10.0
        },
        {
          "id": 4,
          "value": 10.0
        },
        {
          "id": 5,
          "value": 0.5
        },
        {
          "id": 6,
          "value": 10.0
        },
        {
          "id": 7,
          "value": 0.549950004
        },
        {
          "id": 8,
          "value": 10.0
        },
        {
          "id": 9,
          "value": 10.0
        },
        {
          "id": 10,
          "value": 0.0
        },
        {
          "id": 11,
          "value": 0.5
        },
        {
          "id": 12,
          "value": 0.5
        },
        {
          "id": 13,
          "value": 0.0
        },
        {
          "id": 14,
          "value": 0.0
        },
        {
          "id": 15,
          "value": 0.0
        },
        {
          "id": 16,
          "value": 0.0
        },
        {
          "id": 17,
          "value": 0.0
        },
        {
          "id": 18,
          "value": 0.0
        },
        {
          "id": 19,
          "value": 0.0
        },
        {
          "id": 20,
          "value": 0.0
        },
        {
          "id": 21,
          "value": 0.0
        },
        {
          "id": 22,
          "value": 0.0
        },
        {
          "id": 23,
          "value": 0.0
        },
        {
          "id": 24,
          "value": 0.0
        },
        {
          "id": 25,
          "value": 0.0
        },
        {
          "id": 26,
          "value": 0.0
        },
        {
          "id": 27,
          "value": 0.0
        },
        {
          "id": 28,
          "value": 0.0
        },
        {
          "id": 29,
          "value": 0.0
        },
        {
          "id": 30,
          "value": 1.0
        }
      ],
      "leftModuleId": 185,
      "rightModuleId": 166,
      "data": {
        "frozen": false,
        "freezeToggle": false,
        "panelStyle": 0,
        "tuned": 0,
        "diffuseInput": 1,
        "preDelayCVSens": 0,
        "inputSensitivity": 0,
        "outputSaturation": 0
      },
      "pos": [
        15,
        3
      ]
    },
    {
      "id": 185,
      "plugin": "NYSTHI",
      "version": "1.0.11",
      "model": "M2",
      "params": [
        {
          "id": 0,
          "value": 1.0
        },
        {
          "id": 1,
          "value": 1.0
        },
        {
          "id": 2,
          "value": 1.0
        },
        {
          "id": 3,
          "value": 1.0
        },
        {
          "id": 4,
          "value": 0.0
        },
        {
          "id": 5,
          "value": 0.0
        },
        {
          "id": 6,
          "value": 0.0
        },
        {
          "id": 7,
          "value": 0.0
        },
        {
          "id": 8,
          "value": 0.0
        },
        {
          "id": 9,
          "value": 0.0
        },
        {
          "id": 10,
          "value": 1.0
        }
      ],
      "rightModuleId": 184,
      "data": {
        "m_mute0": false,
        "m_mute1": false,
        "m_mute2": false,
        "m_mute3": false,
        "m_4_quadrants_VCA": true,
        "m_exponential_levels": false
      },
      "pos": [
        14,
        3
      ]
    },
    {
      "id": 187,
      "plugin": "DrumKit",
      "version": "1.1.4",
      "model": "CR78",
      "params": [
        {
          "id": 0,
          "value": 3.0
        },
        {
          "id": 1,
          "value": 3.0
        },
        {
          "id": 2,
          "value": 0.0
        },
        {
          "id": 3,
          "value": 0.0
        },
        {
          "id": 4,
          "value": 0.0
        },
        {
          "id": 5,
          "value": 0.0
        },
        {
          "id": 6,
          "value": 0.0
        },
        {
          "id": 7,
          "value": 0.0
        },
        {
          "id": 8,
          "value": 0.0
        },
        {
          "id": 9,
          "value": 0.0
        },
        {
          "id": 10,
          "value": 0.0
        },
        {
          "id": 11,
          "value": 0.0
        },
        {
          "id": 12,
          "value": 0.0
        },
        {
          "id": 13,
          "value": 0.0
        },
        {
          "id": 14,
          "value": 0.0
        },
        {
          "id": 15,
          "value": 0.0
        },
        {
          "id": 16,
          "value": 1.0
        },
        {
          "id": 17,
          "value": 1.0
        },
        {
          "id": 18,
          "value": 0.0
        },
        {
          "id": 19,
          "value": 0.0
        },
        {
          "id": 20,
          "value": 0.0
        },
        {
          "id": 21,
          "value": 0.0
        },
        {
          "id": 22,
          "value": 0.0
        },
        {
          "id": 23,
          "value": 0.0
        },
        {
          "id": 24,
          "value": 0.0
        },
        {
          "id": 25,
          "value": 0.0
        },
        {
          "id": 26,
          "value": 0.0
        },
        {
          "id": 27,
          "value": 0.0
        },
        {
          "id": 28,
          "value": 0.0
        },
        {
          "id": 29,
          "value": 0.0
        },
        {
          "id": 30,
          "value": 0.0
        },
        {
          "id": 31,
          "value": 0.0
        }
      ],
      "leftModuleId": 188,
      "rightModuleId": 103,
      "pos": [
        21,
        1
      ]
    },
    {
      "id": 188,
      "plugin": "FrozenWasteland",
      "version": "1.12.0",
      "model": "BPMLFO",
      "params": [
        {
          "id": 0,
          "value": 1.0
        },
        {
          "id": 1,
          "value": 0.0
        },
        {
          "id": 2,
          "value": 4.0
        },
        {
          "id": 3,
          "value": 0.0
        },
        {
          "id": 4,
          "value": 0.0
        },
        {
          "id": 5,
          "value": 0.0
        },
        {
          "id": 6,
          "value": 0.0
        },
        {
          "id": 7,
          "value": 1.0
        },
        {
          "id": 8,
          "value": 1.0
        },
        {
          "id": 9,
          "value": 0.0
        }
      ],
      "leftModuleId": 190,
      "rightModuleId": 187,
      "pos": [
        13,
        1
      ]
    },
    {
      "id": 189,
      "plugin": "Valley",
      "version": "1.0.1",
      "model": "Plateau",
      "params": [
        {
          "id": 0,
          "value": 0.890500009
        },
        {
          "id": 1,
          "value": 0.163999751
        },
        {
          "id": 2,
          "value": 0.107250005
        },
        {
          "id": 3,
          "value": 10.0
        },
        {
          "id": 4,
          "value": 10.0
        },
        {
          "id": 5,
          "value": 0.5
        },
        {
          "id": 6,
          "value": 10.0
        },
        {
          "id": 7,
          "value": 0.549950004
        },
        {
          "id": 8,
          "value": 10.0
        },
        {
          "id": 9,
          "value": 10.0
        },
        {
          "id": 10,
          "value": 0.0
        },
        {
          "id": 11,
          "value": 0.5
        },
        {
          "id": 12,
          "value": 0.5
        },
        {
          "id": 13,
          "value": 0.0
        },
        {
          "id": 14,
          "value": 0.0
        },
        {
          "id": 15,
          "value": 0.0
        },
        {
          "id": 16,
          "value": 0.0
        },
        {
          "id": 17,
          "value": 0.0
        },
        {
          "id": 18,
          "value": 0.0
        },
        {
          "id": 19,
          "value": 0.0
        },
        {
          "id": 20,
          "value": 0.0
        },
        {
          "id": 21,
          "value": 0.0
        },
        {
          "id": 22,
          "value": 0.0
        },
        {
          "id": 23,
          "value": 0.0
        },
        {
          "id": 24,
          "value": 0.0
        },
        {
          "id": 25,
          "value": 0.0
        },
        {
          "id": 26,
          "value": 0.0
        },
        {
          "id": 27,
          "value": 0.0
        },
        {
          "id": 28,
          "value": 0.0
        },
        {
          "id": 29,
          "value": 0.0
        },
        {
          "id": 30,
          "value": 1.0
        }
      ],
      "rightModuleId": 190,
      "data": {
        "frozen": false,
        "freezeToggle": false,
        "panelStyle": 0,
        "tuned": 0,
        "diffuseInput": 1,
        "preDelayCVSens": 0,
        "inputSensitivity": 0,
        "outputSaturation": 0
      },
      "pos": [
        0,
        1
      ]
    },
    {
      "id": 190,
      "plugin": "NYSTHI",
      "version": "1.0.11",
      "model": "M2",
      "params": [
        {
          "id": 0,
          "value": 1.0
        },
        {
          "id": 1,
          "value": 1.0
        },
        {
          "id": 2,
          "value": 1.0
        },
        {
          "id": 3,
          "value": 1.0
        },
        {
          "id": 4,
          "value": 0.0
        },
        {
          "id": 5,
          "value": 0.0
        },
        {
          "id": 6,
          "value": 0.0
        },
        {
          "id": 7,
          "value": 0.0
        },
        {
          "id": 8,
          "value": 0.0
        },
        {
          "id": 9,
          "value": 0.0
        },
        {
          "id": 10,
          "value": 1.0
        }
      ],
      "leftModuleId": 189,
      "rightModuleId": 188,
      "data": {
        "m_mute0": false,
        "m_mute1": false,
        "m_mute2": false,
        "m_mute3": false,
        "m_4_quadrants_VCA": true,
        "m_exponential_levels": false
      },
      "pos": [
        12,
        1
      ]
    },
    {
      "id": 191,
      "plugin": "AudibleInstruments",
      "version": "1.0.2",
      "model": "Braids",
      "params": [
        {
          "id": 0,
          "value": 0.0
        },
        {
          "id": 1,
          "value": -1.87999964
        },
        {
          "id": 2,
          "value": 0.0
        },
        {
          "id": 3,
          "value": 0.5
        },
        {
          "id": 4,
          "value": 0.0
        },
        {
          "id": 5,
          "value": 0.5
        },
        {
          "id": 6,
          "value": 0.290999919
        }
      ],
      "leftModuleId": 195,
      "rightModuleId": 192,
      "data": {
        "settings": [
          13,
          0,
          0,
          0,
          0,
          0,
          0,
          0,
          0,
          0,
          0,
          0,
          0,
          0,
          0,
          0,
          0,
          0,
          0,
          0
        ],
        "lowCpu": false
      },
      "pos": [
        63,
        0
      ]
    },
    {
      "id": 192,
      "plugin": "VultModulesFree",
      "version": "1.9.0",
      "model": "Lateralus",
      "params": [
        {
          "id": 0,
          "value": 0.340999782
        },
        {
          "id": 1,
          "value": 0.0
        },
        {
          "id": 2,
          "value": 0.327000052
        },
        {
          "id": 3,
          "value": 0.0
        },
        {
          "id": 4,
          "value": 0.600000024
        },
        {
          "id": 5,
          "value": 0.0
        },
        {
          "id": 6,
          "value": 0.0
        }
      ],
      "leftModuleId": 191,
      "rightModuleId": 193,
      "pos": [
        79,
        0
      ]
    },
    {
      "id": 193,
      "plugin": "Valley",
      "version": "1.0.1",
      "model": "Plateau",
      "params": [
        {
          "id": 0,
          "value": 1.0
        },
        {
          "id": 1,
          "value": 0.199999765
        },
        {
          "id": 2,
          "value": 0.2084997
        },
        {
          "id": 3,
          "value": 10.0
        },
        {
          "id": 4,
          "value": 10.0
        },
        {
          "id": 5,
          "value": 0.5
        },
        {
          "id": 6,
          "value": 10.0
        },
        {
          "id": 7,
          "value": 0.549950004
        },
        {
          "id": 8,
          "value": 10.0
        },
        {
          "id": 9,
          "value": 10.0
        },
        {
          "id": 10,
          "value": 0.0795002282
        },
        {
          "id": 11,
          "value": 0.5
        },
        {
          "id": 12,
          "value": 16.0
        },
        {
          "id": 13,
          "value": 0.0
        },
        {
          "id": 14,
          "value": 0.0
        },
        {
          "id": 15,
          "value": 0.0
        },
        {
          "id": 16,
          "value": 0.0
        },
        {
          "id": 17,
          "value": 0.0
        },
        {
          "id": 18,
          "value": 0.0
        },
        {
          "id": 19,
          "value": 0.0
        },
        {
          "id": 20,
          "value": 0.0
        },
        {
          "id": 21,
          "value": 0.0
        },
        {
          "id": 22,
          "value": 0.0
        },
        {
          "id": 23,
          "value": 0.0
        },
        {
          "id": 24,
          "value": 0.0
        },
        {
          "id": 25,
          "value": 0.0
        },
        {
          "id": 26,
          "value": 0.0
        },
        {
          "id": 27,
          "value": 0.0
        },
        {
          "id": 28,
          "value": 0.0
        },
        {
          "id": 29,
          "value": 0.0
        },
        {
          "id": 30,
          "value": 1.0
        }
      ],
      "leftModuleId": 192,
      "rightModuleId": 194,
      "data": {
        "frozen": false,
        "freezeToggle": false,
        "panelStyle": 0,
        "tuned": 0,
        "diffuseInput": 1,
        "preDelayCVSens": 0,
        "inputSensitivity": 0,
        "outputSaturation": 0
      },
      "pos": [
        89,
        0
      ]
    },
    {
      "id": 194,
      "plugin": "NYSTHI",
      "version": "1.0.11",
      "model": "M2",
      "params": [
        {
          "id": 0,
          "value": 1.0
        },
        {
          "id": 1,
          "value": 1.0
        },
        {
          "id": 2,
          "value": 1.0
        },
        {
          "id": 3,
          "value": 1.0
        },
        {
          "id": 4,
          "value": 0.0
        },
        {
          "id": 5,
          "value": 0.0
        },
        {
          "id": 6,
          "value": 0.0
        },
        {
          "id": 7,
          "value": 0.0
        },
        {
          "id": 8,
          "value": 0.0
        },
        {
          "id": 9,
          "value": 0.0
        },
        {
          "id": 10,
          "value": 1.0
        }
      ],
      "leftModuleId": 193,
      "rightModuleId": 196,
      "data": {
        "m_mute0": false,
        "m_mute1": false,
        "m_mute2": false,
        "m_mute3": false,
        "m_4_quadrants_VCA": true,
        "m_exponential_levels": false
      },
      "pos": [
        101,
        0
      ]
    },
    {
      "id": 195,
      "plugin": "NYSTHI",
      "version": "1.0.11",
      "model": "BIGBUTTON",
      "params": [],
      "rightModuleId": 191,
      "data": {
        "m_button_1_gater": false,
        "m_button_2_gater": false
      },
      "pos": [
        56,
        0
      ]
    },
    {
      "id": 196,
      "plugin": "NYSTHI",
      "version": "1.0.11",
      "model": "MonoRecorder",
      "params": [
        {
          "id": 0,
          "value": 0.0
        },
        {
          "id": 1,
          "value": 0.0
        },
        {
          "id": 2,
          "value": 0.0
        },
        {
          "id": 3,
          "value": 1.0
        },
        {
          "id": 4,
          "value": 0.0
        }
      ],
      "leftModuleId": 194,
      "rightModuleId": 197,
      "data": {
        "nysthi_id": "monorecorder_3AHQ4Nwl",
        "wavebits": 9,
        "rms_time": 0.00100000005,
        "peak_time": 0.5,
        "m_invertphase": false,
        "m_autosave": true,
        "m_attenuation": 1.0
      },
      "pos": [
        102,
        0
      ]
    },
    {
      "id": 197,
      "plugin": "NYSTHI",
      "version": "1.0.11",
      "model": "MonoRecorder",
      "params": [
        {
          "id": 0,
          "value": 0.0
        },
        {
          "id": 1,
          "value": 0.0
        },
        {
          "id": 2,
          "value": 0.0
        },
        {
          "id": 3,
          "value": 1.0
        },
        {
          "id": 4,
          "value": 0.0
        }
      ],
      "leftModuleId": 196,
      "rightModuleId": 198,
      "data": {
        "nysthi_id": "monorecorder_3AHQ4Nwl",
        "wavebits": 9,
        "rms_time": 0.00100000005,
        "peak_time": 0.5,
        "m_invertphase": false,
        "m_autosave": true,
        "m_attenuation": 1.0
      },
      "pos": [
        108,
        0
      ]
    },
    {
      "id": 198,
      "plugin": "NYSTHI",
      "version": "1.0.11",
      "model": "MonoRecorder",
      "params": [
        {
          "id": 0,
          "value": 0.0
        },
        {
          "id": 1,
          "value": 0.0
        },
        {
          "id": 2,
          "value": 0.0
        },
        {
          "id": 3,
          "value": 1.0
        },
        {
          "id": 4,
          "value": 0.0
        }
      ],
      "leftModuleId": 197,
      "rightModuleId": 199,
      "data": {
        "nysthi_id": "monorecorder_3AHQ4Nwl",
        "wavebits": 9,
        "rms_time": 0.00100000005,
        "peak_time": 0.5,
        "m_invertphase": false,
        "m_autosave": true,
        "m_attenuation": 1.0
      },
      "pos": [
        114,
        0
      ]
    },
    {
      "id": 199,
      "plugin": "NYSTHI",
      "version": "1.0.11",
      "model": "MonoRecorder",
      "params": [
        {
          "id": 0,
          "value": 0.0
        },
        {
          "id": 1,
          "value": 0.0
        },
        {
          "id": 2,
          "value": 0.0
        },
        {
          "id": 3,
          "value": 1.0
        },
        {
          "id": 4,
          "value": 0.0
        }
      ],
      "leftModuleId": 198,
      "rightModuleId": 200,
      "data": {
        "nysthi_id": "monorecorder_3AHQ4Nwl",
        "wavebits": 9,
        "rms_time": 0.00100000005,
        "peak_time": 0.5,
        "m_invertphase": false,
        "m_autosave": true,
        "m_attenuation": 1.0
      },
      "pos": [
        120,
        0
      ]
    },
    {
      "id": 200,
      "plugin": "NYSTHI",
      "version": "1.0.11",
      "model": "MonoRecorder",
      "params": [
        {
          "id": 0,
          "value": 0.0
        },
        {
          "id": 1,
          "value": 0.0
        },
        {
          "id": 2,
          "value": 0.0
        },
        {
          "id": 3,
          "value": 1.0
        },
        {
          "id": 4,
          "value": 0.0
        }
      ],
      "leftModuleId": 199,
      "data": {
        "nysthi_id": "monorecorder_3AHQ4Nwl",
        "wavebits": 9,
        "rms_time": 0.00100000005,
        "peak_time": 0.5,
        "m_invertphase": false,
        "m_autosave": true,
        "m_attenuation": 1.0
      },
      "pos": [
        126,
        0
      ]
    }
  ],
  "cables": [
    {
      "id": 269,
      "outputModuleId": 94,
      "outputId": 0,
      "inputModuleId": 100,
      "inputId": 0,
      "color": "#0986ad"
    },
    {
      "id": 273,
      "outputModuleId": 94,
      "outputId": 1,
      "inputModuleId": 100,
      "inputId": 1,
      "color": "#c9b70e"
    },
    {
      "id": 274,
      "outputModuleId": 100,
      "outputId": 0,
      "inputModuleId": 101,
      "inputId": 2,
      "color": "#0c8e15"
    },
    {
      "id": 275,
      "outputModuleId": 100,
      "outputId": 1,
      "inputModuleId": 101,
      "inputId": 3,
      "color": "#c91847"
    },
    {
      "id": 276,
      "outputModuleId": 101,
      "outputId": 0,
      "inputModuleId": 1,
      "inputId": 0,
      "color": "#0986ad"
    },
    {
      "id": 277,
      "outputModuleId": 101,
      "outputId": 1,
      "inputModuleId": 1,
      "inputId": 1,
      "color": "#c9b70e"
    },
    {
      "id": 278,
      "outputModuleId": 101,
      "outputId": 0,
      "inputModuleId": 99,
      "inputId": 0,
      "color": "#0c8e15"
    },
    {
      "id": 279,
      "outputModuleId": 101,
      "outputId": 1,
      "inputModuleId": 99,
      "inputId": 1,
      "color": "#c91847"
    },
    {
      "id": 301,
      "outputModuleId": 118,
      "outputId": 0,
      "inputModuleId": 119,
      "inputId": 0,
      "color": "#c9b70e"
    },
    {
      "id": 376,
      "outputModuleId": 175,
      "outputId": 0,
      "inputModuleId": 176,
      "inputId": 0,
      "color": "#0986ad"
    },
    {
      "id": 399,
      "outputModuleId": 95,
      "outputId": 0,
      "inputModuleId": 112,
      "inputId": 0,
      "color": "#c91847"
    },
    {
      "id": 400,
      "outputModuleId": 112,
      "outputId": 0,
      "inputModuleId": 118,
      "inputId": 0,
      "color": "#0986ad"
    },
    {
      "id": 401,
      "outputModuleId": 112,
      "outputId": 0,
      "inputModuleId": 118,
      "inputId": 1,
      "color": "#c9b70e"
    },
    {
      "id": 402,
      "outputModuleId": 119,
      "outputId": 0,
      "inputModuleId": 94,
      "inputId": 0,
      "color": "#0c8e15"
    },
    {
      "id": 404,
      "outputModuleId": 167,
      "outputId": 0,
      "inputModuleId": 168,
      "inputId": 0,
      "color": "#0986ad"
    },
    {
      "id": 406,
      "outputModuleId": 95,
      "outputId": 1,
      "inputModuleId": 166,
      "inputId": 0,
      "color": "#0c8e15"
    },
    {
      "id": 408,
      "outputModuleId": 170,
      "outputId": 1,
      "inputModuleId": 171,
      "inputId": 2,
      "color": "#0986ad"
    },
    {
      "id": 409,
      "outputModuleId": 171,
      "outputId": 0,
      "inputModuleId": 173,
      "inputId": 0,
      "color": "#c9b70e"
    },
    {
      "id": 410,
      "outputModuleId": 172,
      "outputId": 6,
      "inputModuleId": 171,
      "inputId": 0,
      "color": "#c91847"
    },
    {
      "id": 407,
      "outputModuleId": 95,
      "outputId": 1,
      "inputModuleId": 172,
      "inputId": 2,
      "color": "#c91847"
    },
    {
      "id": 411,
      "outputModuleId": 173,
      "outputId": 2,
      "inputModuleId": 175,
      "inputId": 0,
      "color": "#0986ad"
    },
    {
      "id": 412,
      "outputModuleId": 173,
      "outputId": 2,
      "inputModuleId": 175,
      "inputId": 1,
      "color": "#0c8e15"
    },
    {
      "id": 413,
      "outputModuleId": 176,
      "outputId": 0,
      "inputModuleId": 94,
      "inputId": 1,
      "color": "#c91847"
    },
    {
      "id": 403,
      "outputModuleId": 168,
      "outputId": 0,
      "inputModuleId": 169,
      "inputId": 0,
      "color": "#c91847"
    },
    {
      "id": 414,
      "outputModuleId": 169,
      "outputId": 0,
      "inputModuleId": 170,
      "inputId": 1,
      "color": "#0986ad"
    },
    {
      "id": 405,
      "outputModuleId": 166,
      "outputId": 14,
      "inputModuleId": 167,
      "inputId": 0,
      "color": "#c9b70e"
    },
    {
      "id": 415,
      "outputModuleId": 95,
      "outputId": 2,
      "inputModuleId": 183,
      "inputId": 0,
      "color": "#0c8e15"
    },
    {
      "id": 417,
      "outputModuleId": 182,
      "outputId": 0,
      "inputModuleId": 184,
      "inputId": 0,
      "color": "#0986ad"
    },
    {
      "id": 418,
      "outputModuleId": 182,
      "outputId": 0,
      "inputModuleId": 184,
      "inputId": 1,
      "color": "#c9b70e"
    },
    {
      "id": 419,
      "outputModuleId": 184,
      "outputId": 0,
      "inputModuleId": 185,
      "inputId": 0,
      "color": "#0c8e15"
    },
    {
      "id": 420,
      "outputModuleId": 184,
      "outputId": 1,
      "inputModuleId": 185,
      "inputId": 1,
      "color": "#c91847"
    },
    {
      "id": 421,
      "outputModuleId": 185,
      "outputId": 0,
      "inputModuleId": 94,
      "inputId": 2,
      "color": "#0986ad"
    },
    {
      "id": 302,
      "outputModuleId": 118,
      "outputId": 1,
      "inputModuleId": 119,
      "inputId": 1,
      "color": "#0c8e15"
    },
    {
      "id": 377,
      "outputModuleId": 175,
      "outputId": 1,
      "inputModuleId": 176,
      "inputId": 1,
      "color": "#c9b70e"
    },
    {
      "id": 416,
      "outputModuleId": 183,
      "outputId": 0,
      "inputModuleId": 182,
      "inputId": 0,
      "color": "#c91847"
    },
    {
      "id": 423,
      "outputModuleId": 95,
      "outputId": 3,
      "inputModuleId": 187,
      "inputId": 17,
      "color": "#c91847"
    },
    {
      "id": 425,
      "outputModuleId": 95,
      "outputId": 1,
      "inputModuleId": 188,
      "inputId": 0,
      "color": "#0c8e15"
    },
    {
      "id": 426,
      "outputModuleId": 188,
      "outputId": 0,
      "inputModuleId": 187,
      "inputId": 1,
      "color": "#0986ad"
    },
    {
      "id": 424,
      "outputModuleId": 187,
      "outputId": 1,
      "inputModuleId": 189,
      "inputId": 0,
      "color": "#0986ad"
    },
    {
      "id": 427,
      "outputModuleId": 189,
      "outputId": 0,
      "inputModuleId": 94,
      "inputId": 3,
      "color": "#c9b70e"
    },
    {
      "id": 429,
      "outputModuleId": 166,
      "outputId": 12,
      "inputModuleId": 114,
      "inputId": 0,
      "color": "#c91847"
    },
    {
      "id": 430,
      "outputModuleId": 114,
      "outputId": 0,
      "inputModuleId": 191,
      "inputId": 1,
      "color": "#0986ad"
    },
    {
      "id": 432,
      "outputModuleId": 191,
      "outputId": 0,
      "inputModuleId": 192,
      "inputId": 0,
      "color": "#0c8e15"
    },
    {
      "id": 434,
      "outputModuleId": 188,
      "outputId": 0,
      "inputModuleId": 192,
      "inputId": 1,
      "color": "#0986ad"
    },
    {
      "id": 433,
      "outputModuleId": 192,
      "outputId": 1,
      "inputModuleId": 193,
      "inputId": 0,
      "color": "#c91847"
    },
    {
      "id": 435,
      "outputModuleId": 192,
      "outputId": 1,
      "inputModuleId": 193,
      "inputId": 1,
      "color": "#c9b70e"
    },
    {
      "id": 436,
      "outputModuleId": 193,
      "outputId": 0,
      "inputModuleId": 194,
      "inputId": 0,
      "color": "#c91847"
    },
    {
      "id": 437,
      "outputModuleId": 193,
      "outputId": 1,
      "inputModuleId": 194,
      "inputId": 1,
      "color": "#0986ad"
    },
    {
      "id": 438,
      "outputModuleId": 194,
      "outputId": 0,
      "inputModuleId": 94,
      "inputId": 4,
      "color": "#0c8e15"
    },
    {
      "id": 440,
      "outputModuleId": 195,
      "outputId": 0,
      "inputModuleId": 95,
      "inputId": 5,
      "color": "#c9b70e"
    },
    {
      "id": 441,
      "outputModuleId": 94,
      "outputId": 2,
      "inputModuleId": 196,
      "inputId": 0,
      "color": "#0c8e15"
    },
    {
      "id": 442,
      "outputModuleId": 94,
      "outputId": 3,
      "inputModuleId": 197,
      "inputId": 0,
      "color": "#c91847"
    },
    {
      "id": 443,
      "outputModuleId": 94,
      "outputId": 4,
      "inputModuleId": 198,
      "inputId": 0,
      "color": "#0986ad"
    },
    {
      "id": 444,
      "outputModuleId": 94,
      "outputId": 5,
      "inputModuleId": 199,
      "inputId": 0,
      "color": "#c9b70e"
    },
    {
      "id": 445,
      "outputModuleId": 94,
      "outputId": 6,
      "inputModuleId": 200,
      "inputId": 0,
      "color": "#0c8e15"
    },
    {
      "id": 446,
      "outputModuleId": 195,
      "outputId": 0,
      "inputModuleId": 196,
      "inputId": 1,
      "color": "#c91847"
    },
    {
      "id": 447,
      "outputModuleId": 195,
      "outputId": 0,
      "inputModuleId": 197,
      "inputId": 1,
      "color": "#0986ad"
    },
    {
      "id": 448,
      "outputModuleId": 195,
      "outputId": 0,
      "inputModuleId": 198,
      "inputId": 1,
      "color": "#c9b70e"
    },
    {
      "id": 449,
      "outputModuleId": 195,
      "outputId": 0,
      "inputModuleId": 199,
      "inputId": 1,
      "color": "#0c8e15"
    },
    {
      "id": 450,
      "outputModuleId": 195,
      "outputId": 0,
      "inputModuleId": 200,
      "inputId": 1,
      "color": "#c91847"
    },
    {
      "id": 451,
      "outputModuleId": 195,
      "outputId": 2,
      "inputModuleId": 196,
      "inputId": 2,
      "color": "#0986ad"
    },
    {
      "id": 452,
      "outputModuleId": 195,
      "outputId": 2,
      "inputModuleId": 197,
      "inputId": 2,
      "color": "#c9b70e"
    },
    {
      "id": 453,
      "outputModuleId": 195,
      "outputId": 2,
      "inputModuleId": 198,
      "inputId": 2,
      "color": "#0c8e15"
    },
    {
      "id": 454,
      "outputModuleId": 195,
      "outputId": 2,
      "inputModuleId": 199,
      "inputId": 2,
      "color": "#c91847"
    },
    {
      "id": 455,
      "outputModuleId": 195,
      "outputId": 2,
      "inputModuleId": 200,
      "inputId": 2,
      "color": "#0986ad"
    },
    {
      "id": 456,
      "outputModuleId": 195,
      "outputId": 2,
      "inputModuleId": 95,
      "inputId": 4,
      "color": "#c9b70e"
    }
  ]
}